<?xml version="1.0" standalone="no"?>
<!DOCTYPE svg PUBLIC "-//W3C//DTD SVG 20010904//EN"
 "http://www.w3.org/TR/2001/REC-SVG-20010904/DTD/svg10.dtd">
<svg version="1.0" xmlns="http://www.w3.org/2000/svg"
 width="320.000000pt" height="320.000000pt" viewBox="0 0 320.000000 320.000000"
 preserveAspectRatio="xMidYMid meet">
<metadata>
Created by potrace 1.11, written by Peter Selinger 2001-2013
</metadata>
<g transform="translate(0.000000,320.000000) scale(0.100000,-0.100000)"
fill="#000000" stroke="none">
<path d="M1086 2727 c-3 -12 -14 -65 -26 -117 -11 -52 -22 -104 -24 -115 -20
-99 -49 -231 -52 -236 -2 -3 -49 9 -106 28 -129 42 -311 90 -391 103 -34 5
-73 12 -86 15 -40 8 -184 8 -216 0 -79 -20 -118 -84 -94 -156 21 -60 106 -157
216 -245 26 -22 50 -42 53 -45 17 -20 394 -258 471 -298 25 -12 26 -15 17 -55
-5 -22 -12 -51 -14 -63 -2 -12 -33 -158 -69 -325 -36 -167 -67 -312 -69 -323
-13 -64 -41 -197 -67 -314 -16 -74 -29 -140 -29 -146 0 -11 413 -15 425 -4 3
4 7 15 10 26 2 11 13 65 25 119 12 55 23 108 26 118 2 11 13 65 25 120 11 56
23 112 26 126 2 14 18 86 34 160 16 74 32 149 35 165 3 17 7 35 8 40 1 6 8 36
15 68 7 31 14 57 15 57 17 0 236 -113 236 -121 0 -6 7 -59 16 -117 8 -59 17
-120 19 -137 3 -31 33 -239 40 -285 2 -14 6 -47 10 -75 3 -27 7 -59 9 -70 2
-11 7 -42 10 -70 15 -101 18 -120 23 -125 2 -3 123 -5 268 -5 l264 0 11 47 c5
27 14 69 20 96 5 26 26 124 46 217 20 94 37 178 40 189 2 10 5 20 6 21 2 1 44
-11 93 -27 95 -31 246 -76 280 -84 236 -57 416 -66 473 -25 18 12 32 25 33 29
10 72 -20 135 -111 228 -126 129 -319 273 -602 449 -26 16 -44 33 -42 37 3 4
7 17 10 28 8 38 14 65 24 115 6 28 12 60 15 73 3 12 7 32 10 45 17 82 40 187
60 282 13 61 27 126 30 145 3 19 12 62 20 95 16 67 65 295 72 337 l4 28 -215
-1 -215 -2 -15 -71 c-16 -74 -133 -624 -141 -661 -2 -11 -8 -44 -14 -74 -17
-85 -31 -133 -39 -129 -27 12 -238 121 -241 124 -4 4 -26 146 -36 239 -4 33
-9 69 -11 80 -3 11 -7 38 -10 60 -3 22 -12 81 -19 130 -8 50 -16 108 -19 130
-9 67 -18 129 -21 145 -2 8 -4 18 -4 22 -1 4 -122 7 -271 7 l-270 1 -4 -23z
m-690 -402 c61 -9 91 -14 158 -31 34 -8 71 -17 83 -20 28 -5 316 -95 324 -100
4 -2 -4 -55 -18 -116 -13 -62 -26 -122 -29 -133 -39 -195 -48 -226 -60 -221
-26 10 -351 230 -429 291 -182 142 -301 292 -254 321 33 20 123 23 225 9z
m998 -408 c4 -30 8 -63 10 -73 4 -20 15 -98 21 -149 6 -42 26 -185 30 -215 2
-14 7 -46 10 -72 l6 -47 -107 55 c-59 30 -109 55 -111 57 -1 2 13 77 32 166
19 90 37 173 39 185 16 81 37 173 42 186 8 19 20 -19 28 -93z m486 -130 c61
-30 104 -57 102 -65 -1 -7 -18 -87 -37 -179 -19 -91 -37 -178 -40 -192 -3 -14
-9 -41 -14 -59 -5 -18 -10 -35 -10 -37 -1 -30 -15 -75 -21 -68 -5 4 -11 35
-15 68 -3 32 -8 62 -10 65 -1 3 -6 36 -10 75 -4 38 -8 72 -10 75 -2 3 -6 34
-10 70 -4 36 -8 67 -10 70 -1 3 -6 30 -9 61 -4 31 -9 67 -11 80 -11 52 -14 89
-7 89 4 -1 54 -24 112 -53z m733 -401 c309 -196 507 -378 507 -468 0 -80 -219
-78 -520 3 -157 43 -330 102 -330 113 0 6 14 74 30 151 17 77 40 186 52 243
l21 102 56 -31 c31 -18 114 -68 184 -113z"/>
</g>
</svg>
