<?xml version="1.0" encoding="utf-8"?>
<!-- Generator: Adobe Illustrator 17.0.0, SVG Export Plug-In . SVG Version: 6.00 Build 0)  -->
<!DOCTYPE svg PUBLIC "-//W3C//DTD SVG 1.1//EN" "http://www.w3.org/Graphics/SVG/1.1/DTD/svg11.dtd">
<svg version="1.1" id="Livello_1" xmlns="http://www.w3.org/2000/svg" xmlns:xlink="http://www.w3.org/1999/xlink" x="0px" y="0px"
	 width="345.411px" height="198px" viewBox="0 0 345.411 198" enable-background="new 0 0 345.411 198" xml:space="preserve">
<g>
	<g>
		<path fill="none" d="M186.147,117.695c-0.893,4.076-0.098,7.454,3.578,7.454c3.678,0,8.947-2.388,10.238-8.25l2.192-10.539
			c-2.192,1.391-4.677,2.284-6.468,2.685C189.926,110.235,187.14,112.92,186.147,117.695z"/>
		<path fill="none" d="M80.441,88.984l3.112,21.749h0.2l3.732-17.558c-1.37-0.807-2.747-1.596-4.114-2.41
			C82.39,90.179,81.418,89.574,80.441,88.984z"/>
		<path fill="none" d="M268.065,133.701c-10.739,0-12.033-3.281-9.745-14.122l0.806-3.828c-0.612-0.363-1.209-0.741-1.821-1.103
			c-5.968-3.546-12.001-6.994-18.08-10.354l-6.154,28.811h-13.723l7.516-35.485c-2.455-1.299-4.917-2.599-7.384-3.871
			c-0.471-0.241-0.941-0.476-1.409-0.719c-0.09,0.524-0.19,1.055-0.309,1.595l-5.965,28.135c-1.094,4.974-1.191,7.258-0.495,10.344
			h-13.127c-0.498-1.695-0.498-3.781-0.498-5.57h-0.198c-4.373,5.57-8.55,6.962-15.108,6.962c-9.549,0-11.237-8.153-9.646-15.314
			c2.089-10.042,7.058-14.118,17-16.7l8.255-2.088c4.272-1.094,6.061-2.686,6.757-6.264c0.897-4.078-0.397-6.565-4.972-6.565
			c-4.179,0-6.955,2.786-7.857,6.96l-0.292,1.494h-12.331l0.295-1.294c1.686-8.026,6.244-12.582,12.069-14.794
			c-3.657-1.742-7.322-3.463-11.005-5.149c-26.181-12.016-52.815-23.08-80.008-32.351c-13.598-4.581-27.355-8.749-41.269-11.697
			c-6.942-1.442-13.966-2.613-20.821-2.888c-3.392-0.111-6.829-0.001-9.693,0.737c-1.418,0.353-2.641,0.925-3.283,1.51
			c-0.628,0.593-0.791,0.977-0.82,1.968c-0.033,2.043,1.529,5.152,3.41,7.793c1.905,2.72,4.211,5.332,6.639,7.845
			c4.893,5.018,10.318,9.666,15.895,14.118c2.677,2.119,5.389,4.188,8.136,6.222l1.258-5.923h16.502l2.901,20.251
			c2.152,1.407,4.296,2.816,6.461,4.195c0.863,0.544,1.735,1.069,2.595,1.607l5.543-26.053h13.127l-7.056,33.131
			c2.95,1.759,5.916,3.497,8.894,5.211l4.417-20.844h13.719l-5.881,27.765c2.322,1.278,4.652,2.539,6.988,3.801
			c0.241-1.53,0.517-3.11,0.883-4.818c4.672-21.976,15.013-28.138,27.636-28.138c12.629,0,17.5,8.052,14.816,20.681h-13.123
			c1.093-5.171,1.293-10.74-3.876-10.74c-6.761,0-9.151,5.968-11.733,18.294c-1.02,4.84-1.659,8.626-1.767,11.498
			c3.321,1.717,6.658,3.416,9.995,5.088c1.933-1.971,3.392-5.354,4.498-10.42h13.121c-1.393,6.561-3.81,11.757-7.458,15.443
			c0.154,0.074,0.3,0.146,0.451,0.222c26.008,12.536,52.675,23.811,80.016,33.074c13.679,4.589,27.531,8.721,41.621,11.665
			c7.042,1.44,14.163,2.612,21.279,2.871c3.538,0.1,7.123,0,10.428-0.85c1.637-0.43,3.207-1.085,4.335-2.097
			c1.134-1.006,1.681-2.322,1.649-3.925c-0.187-3.129-2.108-6.252-4.149-9.021c-2.104-2.806-4.55-5.399-7.102-7.884
			c-5.129-4.953-10.731-9.461-16.472-13.766c-4.931-3.675-9.995-7.175-15.124-10.58l-1.112,5.329
			C274.028,133.4,271.243,133.701,268.065,133.701z M128.587,73.052h-13.719l2.485-11.732h13.723L128.587,73.052z"/>
		<path fill="none" d="M146.283,125.149c0.511,0,0.996-0.065,1.467-0.166c-2.084-0.988-4.163-1.983-6.239-2.987
			C142.163,124.148,143.663,125.149,146.283,125.149z"/>
		<polygon points="114.868,73.052 128.587,73.052 131.075,61.32 117.352,61.32 		"/>
		<path d="M203.75,78.271c4.816,2.478,9.6,5.02,14.364,7.598C217.012,81.441,213.055,78.609,203.75,78.271z"/>
		<path d="M179.581,94.726l-0.295,1.294h12.331l0.292-1.494c0.902-4.174,3.678-6.96,7.857-6.96c4.575,0,5.869,2.487,4.972,6.565
			c-0.696,3.578-2.485,5.171-6.757,6.264l-8.255,2.088c-9.942,2.583-14.911,6.659-17,16.7c-1.591,7.161,0.097,15.314,9.646,15.314
			c6.558,0,10.734-1.392,15.108-6.962h0.198c0,1.789,0,3.876,0.498,5.57h13.127c-0.696-3.086-0.599-5.37,0.495-10.344l5.965-28.135
			c0.118-0.54,0.219-1.071,0.309-1.595c-8.743-4.496-17.544-8.872-26.421-13.099C185.825,82.144,181.267,86.699,179.581,94.726z
			 M199.964,116.899c-1.291,5.863-6.561,8.25-10.238,8.25c-3.676,0-4.472-3.378-3.578-7.454c0.993-4.775,3.779-7.46,9.54-8.651
			c1.791-0.4,4.276-1.294,6.468-2.685L199.964,116.899z"/>
		<path d="M252.059,91.344c1.394,0,2.88,0.101,4.274,0.2l2.785-13.124c-0.794-0.099-1.689-0.199-2.484-0.199
			c-5.671,0-10.244,3.38-14.117,8.553h-0.2l1.494-7.162h-13.125l-2.503,11.805c4.184,2.345,8.354,4.722,12.484,7.155
			C242.846,93.264,247.872,91.344,252.059,91.344z"/>
		<path d="M233.071,133.106l6.154-28.811c-4.097-2.266-8.222-4.484-12.361-6.674l-7.516,35.485H233.071z"/>
		<path d="M272.439,117.889l6.065-28.93h7.952l1.989-9.347h-7.951l3.277-15.31h-13.719l-3.283,15.31h-6.961l-1.983,9.347h6.959
			l-4.553,21.557c4.071,2.599,8.098,5.262,12.101,7.962C272.366,118.279,272.396,118.103,272.439,117.889z"/>
		<path d="M258.32,119.579c-2.288,10.841-0.994,14.122,9.745,14.122c3.178,0,5.963-0.301,9.046-0.596l1.112-5.329
			c-6.266-4.16-12.646-8.154-19.098-12.025L258.32,119.579z"/>
		<path fill="#E1001A" d="M121.312,107.377c2.322,1.278,4.652,2.539,6.988,3.801c-0.219,1.409-0.384,2.736-0.498,3.997
			c-2.453-1.245-4.907-2.498-7.346-3.765L121.312,107.377z M141.135,117.955c-0.063,1.645,0.056,2.982,0.376,4.041
			c2.076,1.004,4.155,1.999,6.239,2.987c1.269-0.265,2.384-0.923,3.38-1.94C147.793,121.371,144.456,119.671,141.135,117.955z
			 M79.493,82.365l0.947,6.618c0.977,0.59,1.949,1.195,2.931,1.781c1.367,0.815,2.744,1.604,4.114,2.41l1.063-5.007
			c-0.86-0.538-1.732-1.063-2.595-1.607C83.789,85.181,81.645,83.772,79.493,82.365z M99.178,99.887
			c2.969,1.669,5.96,3.321,8.953,4.947l0.926-4.377c-2.977-1.714-5.943-3.452-8.894-5.211L99.178,99.887z"/>
		<g>
			<polygon points="94.092,62.115 88.549,88.168 87.486,93.175 83.754,110.733 83.553,110.733 80.441,88.984 79.493,82.365 
				76.592,62.115 60.09,62.115 58.832,68.038 57.503,74.275 44.98,133.106 58.104,133.106 68.638,83.391 68.843,83.391 
				75.799,133.106 92.1,133.106 99.178,99.887 100.163,95.245 107.219,62.115 			"/>
			<polygon points="113.474,79.612 109.057,100.457 108.131,104.834 102.139,133.106 115.864,133.106 120.457,111.41 
				121.312,107.377 127.193,79.612 			"/>
			<path d="M171.635,98.902c2.685-12.629-2.187-20.681-14.816-20.681c-12.623,0-22.965,6.163-27.636,28.138
				c-0.365,1.708-0.641,3.288-0.883,4.818c-0.219,1.409-0.384,2.736-0.498,3.997c-1.329,14.504,4.274,19.323,15.892,19.323
				c6.304,0,11.289-1.484,15.165-4.307c0.871-0.635,1.67-1.355,2.431-2.125c3.648-3.686,6.065-8.883,7.458-15.443h-13.121
				c-1.107,5.066-2.566,8.449-4.498,10.42c-0.996,1.018-2.111,1.675-3.38,1.94c-0.471,0.101-0.955,0.166-1.467,0.166
				c-2.62,0-4.119-1.002-4.772-3.153c-0.319-1.059-0.438-2.396-0.376-4.041c0.108-2.872,0.747-6.658,1.767-11.498
				c2.582-12.327,4.972-18.294,11.733-18.294c5.169,0,4.969,5.568,3.876,10.74H171.635z"/>
		</g>
		<path fill="#E1001A" d="M323.473,168.951c-0.04-2.068-0.682-3.954-1.472-5.678c-0.806-1.741-1.794-3.346-2.863-4.872
			c-2.149-3.053-4.604-5.808-7.15-8.444c-5.124-5.257-10.669-10.008-16.359-14.554c-7.532-5.978-15.346-11.559-23.297-16.924
			c-4.003-2.701-8.03-5.364-12.101-7.962c-0.092-0.059-0.184-0.119-0.276-0.181c-6.36-4.035-12.794-7.951-19.287-11.764
			c-4.13-2.433-8.3-4.809-12.484-7.155c-3.337-1.876-6.699-3.724-10.069-5.549c-4.764-2.578-9.549-5.119-14.364-7.598
			c-6.638-3.415-13.321-6.742-20.044-9.981c-26.175-12.57-52.969-23.927-80.573-33.24c-13.811-4.627-27.81-8.791-42.209-11.794
			c-7.215-1.46-14.515-2.678-22.123-2.954c-3.819-0.089-7.692-0.037-11.854,1.019c-2.06,0.562-4.295,1.371-6.382,3.2
			c-1.021,0.906-1.949,2.134-2.517,3.517c-0.287,0.691-0.501,1.406-0.609,2.107c-0.122,0.661-0.168,1.555-0.154,2.058
			c0.106,2.658,0.947,4.8,1.87,6.7c0.939,1.895,2.049,3.567,3.216,5.14c2.335,3.133,4.931,5.875,7.602,8.485
			c5.364,5.191,11.088,9.802,16.937,14.197c3.48,2.598,7.021,5.099,10.593,7.55l1.329-6.237c-2.747-2.034-5.459-4.103-8.136-6.222
			c-5.578-4.451-11.002-9.1-15.895-14.118c-2.428-2.513-4.734-5.124-6.639-7.845c-1.881-2.641-3.443-5.75-3.41-7.793
			c0.029-0.991,0.192-1.375,0.82-1.968c0.642-0.585,1.865-1.157,3.283-1.51c2.864-0.738,6.301-0.847,9.693-0.737
			c6.855,0.275,13.879,1.447,20.821,2.888c13.914,2.948,27.672,7.117,41.269,11.697c27.193,9.271,53.828,20.336,80.008,32.351
			c3.683,1.686,7.348,3.407,11.005,5.149c8.877,4.228,17.679,8.604,26.421,13.099c0.468,0.243,0.939,0.478,1.409,0.719
			c2.466,1.272,4.928,2.571,7.384,3.871c4.139,2.189,8.264,4.408,12.361,6.674c6.079,3.359,12.112,6.807,18.08,10.354
			c0.612,0.363,1.209,0.741,1.821,1.103c6.452,3.871,12.832,7.865,19.098,12.025c5.129,3.405,10.193,6.904,15.124,10.58
			c5.741,4.304,11.343,8.813,16.472,13.766c2.552,2.485,4.999,5.077,7.102,7.884c2.041,2.768,3.963,5.892,4.149,9.021
			c0.032,1.602-0.515,2.919-1.649,3.925c-1.128,1.012-2.698,1.667-4.335,2.097c-3.306,0.85-6.891,0.95-10.428,0.85
			c-7.116-0.259-14.237-1.431-21.279-2.871c-14.091-2.944-27.943-7.076-41.621-11.665c-27.342-9.262-54.008-20.538-80.016-33.074
			c-0.151-0.076-0.297-0.149-0.451-0.222c-0.761,0.769-1.559,1.489-2.431,2.125c0.544,0.25,1.085,0.506,1.629,0.756
			c26.343,12.047,53.113,23.194,80.56,32.521c13.732,4.613,27.634,8.818,41.859,11.817c7.121,1.467,14.32,2.685,21.665,2.971
			c3.674,0.103,7.4,0.038,11.122-0.906c1.843-0.488,3.729-1.213,5.327-2.612c1.629-1.353,2.557-3.702,2.455-5.708L323.473,168.951z"
			/>
	</g>
	<g>
		<path fill="#222221" d="M45.667,142.578h5.096l1.258,24.922h-4.151l-0.249-6.111h-7.289l-2.901,6.111h-4.154L45.667,142.578z
			 M47.657,158.212l-0.276-12.283h-0.073l-5.545,12.283H47.657z"/>
		<path fill="#222221" d="M66.296,160.658c-1.226,4.503-3.353,7.33-7.995,7.33c-5.445,0-6.108-4.049-4.885-9.879
			c1.253-5.829,3.629-9.876,9.075-9.876c5.654-0.071,5.546,4.398,5.02,6.736h-3.768c0.387-1.749,0.387-4.017-1.851-3.946
			c-2.72,0-3.835,2.933-4.709,7.085c-0.874,4.154-1.013,7.086,1.713,7.086c2.092,0.037,3.207-1.71,3.832-4.536H66.296z"/>
		<path fill="#222221" d="M80.419,160.658c-1.215,4.503-3.345,7.33-7.987,7.33c-5.445,0-6.108-4.049-4.888-9.879
			c1.259-5.829,3.627-9.876,9.073-9.876c5.654-0.071,5.554,4.398,5.029,6.736h-3.77c0.381-1.749,0.381-4.017-1.851-3.946
			c-2.725,0-3.84,2.933-4.715,7.085c-0.866,4.154-1.004,7.086,1.714,7.086c2.092,0.037,3.212-1.71,3.84-4.536H80.419z"/>
		<path fill="#222221" d="M85.551,158.596l-0.211,1.083c-0.558,2.514-0.904,5.726,1.916,5.726c2.691,0,3.637-3.074,3.878-4.189
			h3.565c-0.874,4.152-3.948,6.772-8.033,6.772c-3.067,0-6.666-0.909-4.852-9.598c1.048-4.922,3.212-10.157,9.11-10.157
			c5.24,0,5.967,3.142,4.852,8.377l-0.414,1.987H85.551z M92.147,156.014l0.211-1.009c0.519-2.374,0.138-4.19-1.989-4.19
			c-2.411,0-3.665,2.374-4.19,4.818l-0.073,0.381H92.147z"/>
		<path fill="#222221" d="M106.134,154.201l0.111-0.49c0.314-1.499,0.1-2.896-1.851-2.896c-1.502,0-2.866,0.696-3.212,2.444
			c-0.314,1.467,0.208,2.057,2.059,2.755l2.23,0.839c2.587,0.943,3.562,2.441,2.937,5.41c-0.872,4.014-4.152,5.725-7.958,5.725
			c-4.752,0-5.73-2.198-4.928-5.831l0.149-0.698h3.345l-0.138,0.596c-0.452,2.161,0.07,3.35,2.236,3.35
			c2.054,0,3.28-1.049,3.656-2.76c0.287-1.394-0.238-2.301-1.491-2.756l-2.829-1.082c-2.625-0.974-3.491-2.409-2.863-5.407
			c0.733-3.527,3.626-5.167,7.505-5.167c4.78,0,5.27,2.791,4.78,5.131l-0.173,0.837H106.134z"/>
		<path fill="#222221" d="M119.639,154.201l0.109-0.49c0.317-1.499,0.103-2.896-1.849-2.896c-1.502,0-2.866,0.696-3.216,2.444
			c-0.314,1.467,0.211,2.057,2.063,2.755l2.23,0.839c2.585,0.943,3.562,2.441,2.937,5.41c-0.872,4.014-4.152,5.725-7.958,5.725
			c-4.752,0-5.73-2.198-4.928-5.831l0.146-0.698h3.348l-0.141,0.596c-0.451,2.161,0.074,3.35,2.239,3.35
			c2.054,0,3.28-1.049,3.656-2.76c0.287-1.394-0.238-2.301-1.491-2.756l-2.829-1.082c-2.625-0.974-3.491-2.409-2.863-5.407
			c0.734-3.527,3.627-5.167,7.505-5.167c4.78,0,5.27,2.791,4.78,5.131l-0.176,0.837H119.639z"/>
		<path fill="#222221" d="M132.549,148.233c5.481,0,6.18,4.046,4.924,9.876c-1.221,5.831-3.876,9.879-9.11,9.879
			c-5.202,0-6.106-4.049-4.888-9.879C124.735,152.279,127.104,148.233,132.549,148.233z M128.955,165.195
			c2.756,0,3.738-2.304,4.745-7.086c0.874-4.152,1.012-7.085-1.743-7.085c-2.726,0-3.841,2.933-4.715,7.085
			C126.235,162.891,126.235,165.195,128.955,165.195z"/>
		<path fill="#222221" d="M140.997,148.722h3.765l-0.625,2.93h0.068c1.297-2.095,2.967-3.419,5.102-3.419
			c0.414,0,0.661,0.068,0.866,0.138l-0.801,3.841c-0.241-0.071-0.904-0.209-1.54-0.209c-1.705,0-3.903,0.769-4.671,4.258
			l-2.373,11.24h-3.771L140.997,148.722z"/>
		<path fill="#222221" d="M150.797,148.722h3.771l-3.981,18.778h-3.765L150.797,148.722z M152.156,142.297h3.776l-0.774,3.771
			h-3.767L152.156,142.297z"/>
		<path fill="#222221" d="M165.174,158.596l-0.214,1.083c-0.56,2.514-0.901,5.726,1.919,5.726c2.69,0,3.635-3.074,3.876-4.189h3.564
			c-0.874,4.152-3.949,6.772-8.03,6.772c-3.069,0-6.669-0.909-4.852-9.598c1.047-4.922,3.212-10.157,9.107-10.157
			c5.24,0,5.971,3.142,4.855,8.377l-0.417,1.987H165.174z M171.767,156.014l0.212-1.009c0.52-2.374,0.14-4.19-1.989-4.19
			c-2.412,0-3.665,2.374-4.19,4.818l-0.073,0.381H171.767z"/>
		<path fill="#222221" d="M185.83,148.722h3.765l-0.628,2.93h0.067c1.296-2.095,2.966-3.419,5.102-3.419
			c0.417,0,0.66,0.068,0.869,0.138l-0.804,3.841c-0.238-0.071-0.902-0.209-1.537-0.209c-1.705,0-3.906,0.769-4.672,4.258
			l-2.376,11.24h-3.767L185.83,148.722z"/>
		<path fill="#222221" d="M195.631,148.722h3.77L195.42,167.5h-3.768L195.631,148.722z M196.995,142.297h3.767l-0.766,3.771h-3.769
			L196.995,142.297z"/>
		<path fill="#222221" d="M212.002,160.658c-1.226,4.503-3.353,7.33-7.994,7.33c-5.446,0-6.11-4.049-4.886-9.879
			c1.253-5.829,3.63-9.876,9.075-9.876c5.655-0.071,5.547,4.398,5.021,6.736h-3.767c0.387-1.749,0.387-4.017-1.848-3.946
			c-2.723,0-3.838,2.933-4.71,7.085c-0.876,4.154-1.015,7.086,1.71,7.086c2.093,0.037,3.207-1.71,3.833-4.536H212.002z"/>
		<path fill="#222221" d="M225.148,163.586c-0.137,0.701,0.142,1.33,0.702,1.33c0.249,0,0.486-0.036,0.625-0.106l-0.522,2.444
			c-0.488,0.208-1.183,0.452-1.92,0.452c-1.672,0-2.93-0.661-2.649-2.475h-0.074c-1.394,1.847-3.069,2.756-5.269,2.756
			c-3.005,0-4.537-1.672-3.768-5.27c0.909-4.189,2.899-5.064,5.618-5.9l3.105-0.804c1.434-0.381,2.373-0.768,2.722-2.406
			c0.353-1.71,0-2.793-1.986-2.793c-2.515,0-3.243,1.778-3.63,3.597h-3.565c0.839-3.979,2.937-6.178,7.893-6.178
			c3.315,0,5.683,1.29,4.994,4.603L225.148,163.586z M222.847,157.586c-1.115,0.766-3.315,1.22-4.533,1.746
			c-1.188,0.524-1.89,1.64-2.203,3.036c-0.311,1.571,0.176,2.826,1.742,2.826c2.277,0,3.738-1.71,4.332-4.467L222.847,157.586z"/>
		<path fill="#222221" d="M230.945,148.722h3.557l-0.452,2.198h0.103c1.288-1.678,3.279-2.687,5.064-2.687
			c2.681,0,3.518,1.29,3.767,2.861c1.467-1.814,3.07-2.861,5.343-2.861c2.652,0,4.292,1.362,3.518,4.988l-3.031,14.28h-3.772
			l2.723-12.882c0.525-2.442,0-3.384-1.535-3.384c-1.535,0-3.245,1.224-3.771,3.666l-2.687,12.601h-3.767l2.723-12.882
			c0.52-2.442,0-3.384-1.573-3.384c-1.502,0-3.209,1.224-3.732,3.666l-2.691,12.601h-3.767L230.945,148.722z"/>
		<path fill="#222221" d="M256.555,142.578h3.77l-1.781,8.342h0.07c1.045-1.678,2.787-2.687,4.814-2.687
			c2.864,0,5.516,1.29,3.767,9.632c-1.393,6.457-3.905,10.123-8.3,10.123c-2.69,0-3.286-1.571-3.527-2.793h-0.074l-0.486,2.305
			h-3.56L256.555,142.578z M258.509,164.986c2.617,0,3.767-2.687,4.677-6.947c1.045-5.061,0.664-6.805-1.499-6.805
			c-2.899,0-3.979,2.583-4.926,7.086C255.892,162.331,255.93,164.986,258.509,164.986z"/>
		<path fill="#222221" d="M270.826,148.722h3.767l-3.976,18.778h-3.77L270.826,148.722z M272.185,142.297h3.772l-0.774,3.771h-3.765
			L272.185,142.297z"/>
	</g>
</g>
</svg>
