<?xml version="1.0" encoding="utf-8"?>
<!-- Generator: Adobe Illustrator 22.0.0, SVG Export Plug-In . SVG Version: 6.00 Build 0)  -->
<svg version="1.1" id="Layer_1" xmlns="http://www.w3.org/2000/svg" xmlns:xlink="http://www.w3.org/1999/xlink" x="0px" y="0px"
	 viewBox="0 0 60 60" style="enable-background:new 0 0 60 60;" xml:space="preserve">
<style type="text/css">
	.st0{opacity:0.1;}
	.st1{fill:url(#SVGID_1_);}
	.st2{fill:url(#SVGID_2_);}
	.st3{clip-path:url(#SVGID_4_);fill:#FFCE00;}
	.st4{clip-path:url(#SVGID_4_);fill:#DD0000;}
	.st5{clip-path:url(#SVGID_4_);fill:url(#SVGID_5_);}
	.st6{fill:url(#SVGID_6_);}
	.st7{fill:url(#SVGID_7_);}
	.st8{fill:url(#SVGID_8_);}
	.st9{fill:url(#SVGID_9_);}
	.st10{fill:url(#SVGID_10_);}
	.st11{fill:url(#SVGID_11_);}
	.st12{fill:url(#SVGID_12_);}
	.st13{clip-path:url(#SVGID_14_);}
	.st14{fill:#B22234;}
	.st15{fill:#FFFFFF;}
	.st16{clip-path:url(#SVGID_14_);fill:url(#SVGID_15_);}
</style>
<path class="st0" d="M49.4,9.8C49,6.7,49,5.5,46.8,4.3c-1.8-1-2.5-0.5-3.5-0.5l-6-0.4c-0.1,0-2.6,0.1-2.6,0.1l-2.4,0.2l-7.1-0.2
	l-4-0.3h-9.7c0.1,0,0.2,0,0.2,0c-0.1,0-0.2,0-0.2,0c0.1,0,0.1,0,0.2,0c-0.1,0-0.1,0-0.1,0c0.1,0,0.1,0,0.2,0c-0.1,0-0.1,0-0.1,0
	c0.1,0,0.1,0,0.2,0c-0.1,0-0.1,0-0.1,0c0.1,0,0.1,0,0.2,0c-0.1,0-0.1,0-0.1,0c0,0,0.1,0,0.2,0c-0.1,0-0.1,0-0.1,0c0,0,0.1,0,0.2,0
	c-0.1,0-0.1,0-0.1,0c0,0,0.1,0,0.2,0c-0.1,0-0.1,0-0.1,0c0,0,0.1,0,0.2,0c-0.1,0-0.1,0-0.1,0c0,0,0.1,0,0.1,0c-0.1,0-0.1,0-0.1,0
	c0,0,0.1,0,0.1,0c-0.1,0-0.1,0-0.1,0c0,0,0.1,0,0.1,0c-0.1,0-0.1,0-0.1,0c0,0,0.1,0,0.1,0c-0.1,0-0.1,0-0.1,0c0,0,0.1,0,0.1,0
	c-0.1,0-0.1,0-0.1,0c0,0,0.1,0,0.1,0c0,0-0.1,0-0.1,0c0,0,0.1,0,0.1,0c0,0-0.1,0-0.1,0c0,0,0.1,0,0.1,0c0,0-0.1,0-0.1,0
	c0,0,0.1,0,0.1,0c0,0-0.1,0-0.1,0c0,0,0.1,0,0.1,0c0,0-0.1,0-0.1,0c0,0,0.1,0,0.1,0c0,0-0.1,0-0.1,0c0,0,0.1,0,0.1,0
	c0,0-0.1,0-0.1,0c0,0,0.1,0,0.1,0c0,0-0.1,0-0.1,0c0,0,0.1,0,0.1,0c0,0-0.1,0-0.1,0c0,0,0.1,0,0.1,0c0,0-0.1,0-0.1,0
	c0,0,0.1,0,0.1,0c0,0-0.1,0-0.1,0c0,0,0.1,0,0.1,0c0,0-0.1,0-0.1,0c0,0,0.1,0,0.1,0c0,0-0.1,0-0.1,0c0,0,0.1,0,0.1,0
	c0,0-0.1,0-0.1,0c0,0,0.1,0,0.1,0c0,0-0.1,0-0.1,0c0,0,0.1,0,0.1,0c0,0-0.1,0-0.1,0c0,0,0.1,0,0.1,0c0,0-0.1,0-0.1,0
	c0,0,0.1,0,0.1,0c0,0,0,0,0,0c0,0-0.1,0-0.1,0c0,0,0,0,0.1,0c0,0,0,0,0,0c0,0,0,0,0,0c0,0,0,0,0,0c0,0,0,0,0,0c0,0,0,0,0,0
	c0,0,0,0,0,0c0,0,0.1,0.1,0.1,0.1c0,0,0.1,0,0.1,0.1c1.2,0.9,2.3,2.4,2.4,4.9l2.5,50.1L37.1,48L53,57.2L49.4,9.8z"/>
<g>
	<linearGradient id="SVGID_1_" gradientUnits="userSpaceOnUse" x1="13.8974" y1="8.7791" x2="13.8974" y2="3.1332">
		<stop  offset="0" style="stop-color:#7D7D7D"/>
		<stop  offset="7.118659e-02" style="stop-color:#707070"/>
		<stop  offset="0.4074" style="stop-color:#343434"/>
		<stop  offset="0.6549" style="stop-color:#0E0E0E"/>
		<stop  offset="0.7853" style="stop-color:#000000"/>
	</linearGradient>
	<path class="st1" d="M11.5,3.1c0,0-3.4,1-3.3,5.6h11.5C19.7,8.8,18.5,3.1,11.5,3.1z"/>
	<g>
		<path d="M43.6,6.4c1.7,0,2.3,0,2.5,2.2c0,0,6.1,31,1.5,35.8c-2.5,2.7-6.8-3-10.5-2.6c-3.9,0.3-7.7,8.2-10.9,5.9
			c-5.5-4-4.6-37.8-4.6-37.8l2.3-2c-0.1-0.5,4.4-1.8,6.4-1.4H43.6z"/>
	</g>
	<g>
		<defs>
			<path id="SVGID_3_" d="M55.8,54.8L50.4,8.6l-0.1-0.5c-0.7-5.9-5-5.9-6.8-5.9l-9.3,0.2c-0.1,0-0.2,0-0.2,0L21.3,2.5v0l-2.1,0
				l-4.3,0c-0.2,0-2.8-0.1-4.5,1.1c0,0,4.8-2.1,5.8,5.1l4.7,49.3c0,0,2.2-1.4,10.9-7.6c3.2-1.9,5.8-3.8,5.8-3.8s2.4,1.1,6.6,2.8v0
				C52.8,53.5,55.8,54.8,55.8,54.8z"/>
		</defs>
		<clipPath id="SVGID_2_">
			<use xlink:href="#SVGID_3_"  style="overflow:visible;"/>
		</clipPath>
		<polygon style="clip-path:url(#SVGID_2_);fill:#FFCE00;" points="59.4,35.9 11.9,37.5 12.6,59.6 60.1,58.1 		"/>
		
			<rect x="11.6" y="18" transform="matrix(0.9995 -3.292859e-02 3.292859e-02 0.9995 -0.8832 1.1792)" style="clip-path:url(#SVGID_2_);fill:#DD0000;" width="47.5" height="18.9"/>
		<linearGradient id="SVGID_4_" gradientUnits="userSpaceOnUse" x1="34.337" y1="19.75" x2="34.337" y2="-0.1236">
			<stop  offset="0" style="stop-color:#000000"/>
			<stop  offset="0.173" style="stop-color:#030303"/>
			<stop  offset="0.2993" style="stop-color:#0C0C0C"/>
			<stop  offset="0.4108" style="stop-color:#1C1C1C"/>
			<stop  offset="0.5138" style="stop-color:#333333"/>
			<stop  offset="0.6099" style="stop-color:#4F4F4F"/>
			<stop  offset="0.684" style="stop-color:#6B6B6B"/>
			<stop  offset="0.74" style="stop-color:#676767"/>
			<stop  offset="0.798" style="stop-color:#5A5A5A"/>
			<stop  offset="0.857" style="stop-color:#464646"/>
			<stop  offset="0.9167" style="stop-color:#292929"/>
			<stop  offset="0.9762" style="stop-color:#040404"/>
			<stop  offset="0.9816" style="stop-color:#000000"/>
		</linearGradient>
		<polygon style="clip-path:url(#SVGID_2_);fill:url(#SVGID_4_);" points="57.8,-0.1 10.3,1.4 10.9,19.8 58.4,18.2 		"/>
	</g>
</g>
</svg>
