<?xml version="1.0" encoding="utf-8"?>
<!-- Generator: Adobe Illustrator 22.0.0, SVG Export Plug-In . SVG Version: 6.00 Build 0)  -->
<svg version="1.1" id="Layer_1" xmlns="http://www.w3.org/2000/svg" xmlns:xlink="http://www.w3.org/1999/xlink" x="0px" y="0px"
	 viewBox="0 0 60 60" style="enable-background:new 0 0 60 60;" xml:space="preserve">
<style type="text/css">
	.st0{opacity:0.1;}
	.st1{fill:url(#SVGID_1_);}
	.st2{fill:url(#SVGID_2_);}
	.st3{clip-path:url(#SVGID_4_);fill:#FFCE00;}
	.st4{clip-path:url(#SVGID_4_);fill:#DD0000;}
	.st5{clip-path:url(#SVGID_4_);fill:url(#SVGID_5_);}
	.st6{fill:url(#SVGID_6_);}
	.st7{fill:url(#SVGID_7_);}
	.st8{fill:url(#SVGID_8_);}
	.st9{fill:url(#SVGID_9_);}
	.st10{fill:url(#SVGID_10_);}
	.st11{fill:url(#SVGID_11_);}
	.st12{fill:url(#SVGID_12_);}
	.st13{clip-path:url(#SVGID_14_);}
	.st14{fill:#B22234;}
	.st15{fill:#FFFFFF;}
	.st16{clip-path:url(#SVGID_14_);fill:url(#SVGID_15_);}
</style>
<path class="st0" d="M49.4,9.8C49,6.7,49,5.5,46.8,4.3c-1.8-1-2.5-0.5-3.5-0.5l-6-0.4c-0.1,0-2.6,0.1-2.6,0.1l-2.4,0.2l-7.1-0.2
	l-4-0.3h-9.7c0.1,0,0.2,0,0.2,0c-0.1,0-0.2,0-0.2,0c0.1,0,0.1,0,0.2,0c-0.1,0-0.1,0-0.1,0c0.1,0,0.1,0,0.2,0c-0.1,0-0.1,0-0.1,0
	c0.1,0,0.1,0,0.2,0c-0.1,0-0.1,0-0.1,0c0.1,0,0.1,0,0.2,0c-0.1,0-0.1,0-0.1,0c0,0,0.1,0,0.2,0c-0.1,0-0.1,0-0.1,0c0,0,0.1,0,0.2,0
	c-0.1,0-0.1,0-0.1,0c0,0,0.1,0,0.2,0c-0.1,0-0.1,0-0.1,0c0,0,0.1,0,0.2,0c-0.1,0-0.1,0-0.1,0c0,0,0.1,0,0.1,0c-0.1,0-0.1,0-0.1,0
	c0,0,0.1,0,0.1,0c-0.1,0-0.1,0-0.1,0c0,0,0.1,0,0.1,0c-0.1,0-0.1,0-0.1,0c0,0,0.1,0,0.1,0c-0.1,0-0.1,0-0.1,0c0,0,0.1,0,0.1,0
	c-0.1,0-0.1,0-0.1,0c0,0,0.1,0,0.1,0c0,0-0.1,0-0.1,0c0,0,0.1,0,0.1,0c0,0-0.1,0-0.1,0c0,0,0.1,0,0.1,0c0,0-0.1,0-0.1,0
	c0,0,0.1,0,0.1,0c0,0-0.1,0-0.1,0c0,0,0.1,0,0.1,0c0,0-0.1,0-0.1,0c0,0,0.1,0,0.1,0c0,0-0.1,0-0.1,0c0,0,0.1,0,0.1,0
	c0,0-0.1,0-0.1,0c0,0,0.1,0,0.1,0c0,0-0.1,0-0.1,0c0,0,0.1,0,0.1,0c0,0-0.1,0-0.1,0c0,0,0.1,0,0.1,0c0,0-0.1,0-0.1,0
	c0,0,0.1,0,0.1,0c0,0-0.1,0-0.1,0c0,0,0.1,0,0.1,0c0,0-0.1,0-0.1,0c0,0,0.1,0,0.1,0c0,0-0.1,0-0.1,0c0,0,0.1,0,0.1,0
	c0,0-0.1,0-0.1,0c0,0,0.1,0,0.1,0c0,0-0.1,0-0.1,0c0,0,0.1,0,0.1,0c0,0-0.1,0-0.1,0c0,0,0.1,0,0.1,0c0,0-0.1,0-0.1,0
	c0,0,0.1,0,0.1,0c0,0,0,0,0,0c0,0-0.1,0-0.1,0c0,0,0,0,0.1,0c0,0,0,0,0,0c0,0,0,0,0,0c0,0,0,0,0,0c0,0,0,0,0,0c0,0,0,0,0,0
	c0,0,0,0,0,0c0,0,0.1,0.1,0.1,0.1c0,0,0.1,0,0.1,0.1c1.2,0.9,2.3,2.4,2.4,4.9l2.5,50.1L37.1,48L53,57.2L49.4,9.8z"/>
<g>
	<linearGradient id="SVGID_1_" gradientUnits="userSpaceOnUse" x1="13.8974" y1="8.7791" x2="13.8974" y2="3.1332">
		<stop  offset="0" style="stop-color:#2EAF4A"/>
		<stop  offset="0.3618" style="stop-color:#1E7631"/>
		<stop  offset="0.6391" style="stop-color:#135020"/>
		<stop  offset="0.7853" style="stop-color:#0F421A"/>
	</linearGradient>
	<path class="st1" d="M11.5,3.1c0,0-3.4,1-3.3,5.6h11.5C19.7,8.8,18.5,3.1,11.5,3.1z"/>
	<g>
		<path d="M43.6,6.4c1.7,0,2.3,0,2.5,2.2c0,0,6.1,31,1.5,35.8c-2.5,2.7-6.8-3-10.5-2.6c-3.9,0.3-7.7,8.2-10.9,5.9
			c-5.5-4-4.6-37.8-4.6-37.8l2.3-2c-0.1-0.5,4.4-1.8,6.4-1.4H43.6z"/>
	</g>
	<g>
		<linearGradient id="SVGID_2_" gradientUnits="userSpaceOnUse" x1="44.8513" y1="59.2406" x2="44.8513" y2="2.1467">
			<stop  offset="0" style="stop-color:#EE2130"/>
			<stop  offset="0.3723" style="stop-color:#EE2332"/>
			<stop  offset="0.5065" style="stop-color:#EF2A37"/>
			<stop  offset="0.6021" style="stop-color:#F03542"/>
			<stop  offset="0.6794" style="stop-color:#F24650"/>
			<stop  offset="0.7456" style="stop-color:#F45C63"/>
			<stop  offset="0.8042" style="stop-color:#F6787A"/>
			<stop  offset="0.856" style="stop-color:#FA9796"/>
			<stop  offset="0.8896" style="stop-color:#FCB0AB"/>
			<stop  offset="0.9045" style="stop-color:#FCACA7"/>
			<stop  offset="0.92" style="stop-color:#FA9F9D"/>
			<stop  offset="0.9357" style="stop-color:#F88B8B"/>
			<stop  offset="0.9516" style="stop-color:#F56E72"/>
			<stop  offset="0.9675" style="stop-color:#F24952"/>
			<stop  offset="0.9816" style="stop-color:#EE2130"/>
		</linearGradient>
		<path class="st2" d="M50.4,8.6l-0.1-0.5c-0.7-5.9-5-5.9-6.8-5.9l-9.6,0.2l10.3,47.1c8.5,4.1,11.5,5.4,11.5,5.4L50.4,8.6z"/>
		<linearGradient id="SVGID_4_" gradientUnits="userSpaceOnUse" x1="32.9265" y1="60.3156" x2="32.9265" y2="2.2311">
			<stop  offset="0.7853" style="stop-color:#FAFAFA"/>
			<stop  offset="0.8957" style="stop-color:#FFFFFF"/>
			<stop  offset="1" style="stop-color:#F0F0F0"/>
		</linearGradient>
		<path style="fill:url(#SVGID_4_);" d="M21.3,2.5l10.5,47.9c3.2-1.9,5.8-3.8,5.8-3.8s2.5,1.1,6.8,2.9c0,0-3.5-30.6-4.7-41.2
			c-0.6-5.9-5.7-6-5.7-6L21.3,2.5z"/>
		<linearGradient id="SVGID_5_" gradientUnits="userSpaceOnUse" x1="21.1509" y1="58.1003" x2="21.1509" y2="2.266">
			<stop  offset="0" style="stop-color:#2EAF4A"/>
			<stop  offset="0.3925" style="stop-color:#30B14B"/>
			<stop  offset="0.5621" style="stop-color:#36B84F"/>
			<stop  offset="0.6887" style="stop-color:#41C555"/>
			<stop  offset="0.7933" style="stop-color:#50D65E"/>
			<stop  offset="0.8834" style="stop-color:#63ED69"/>
			<stop  offset="0.9079" style="stop-color:#5FE967"/>
			<stop  offset="0.9333" style="stop-color:#55DC61"/>
			<stop  offset="0.9589" style="stop-color:#43C856"/>
			<stop  offset="0.9816" style="stop-color:#2EAF4A"/>
		</linearGradient>
		<path style="fill:url(#SVGID_5_);" d="M19.2,2.5l-4.3,0c-0.2,0-2.8-0.1-4.5,1.1c0,0,4.8-2.1,5.8,5.1l4.7,49.3
			c0,0,2.2-1.4,10.9-7.6c0,0-3.1-31.4-4.2-42.4c-0.6-5.8-5.4-5.6-5.4-5.6L19.2,2.5z"/>
	</g>
</g>
</svg>
