<?xml version="1.0" encoding="utf-8"?>
<!-- Generator: Adobe Illustrator 22.0.0, SVG Export Plug-In . SVG Version: 6.00 Build 0)  -->
<svg version="1.1" id="Layer_1" xmlns="http://www.w3.org/2000/svg" xmlns:xlink="http://www.w3.org/1999/xlink" x="0px" y="0px"
	 viewBox="0 0 60 60" style="enable-background:new 0 0 60 60;" xml:space="preserve">
<style type="text/css">
	.st0{opacity:0.1;}
	.st1{fill:url(#SVGID_1_);}
	.st2{fill:url(#SVGID_2_);}
	.st3{clip-path:url(#SVGID_4_);fill:#FFCE00;}
	.st4{clip-path:url(#SVGID_4_);fill:#DD0000;}
	.st5{clip-path:url(#SVGID_4_);fill:url(#SVGID_5_);}
	.st6{fill:url(#SVGID_6_);}
	.st7{fill:url(#SVGID_7_);}
	.st8{fill:url(#SVGID_8_);}
	.st9{fill:url(#SVGID_9_);}
	.st10{fill:url(#SVGID_10_);}
	.st11{fill:url(#SVGID_11_);}
	.st12{fill:url(#SVGID_12_);}
	.st13{clip-path:url(#SVGID_14_);}
	.st14{fill:#B22234;}
	.st15{fill:#FFFFFF;}
	.st16{clip-path:url(#SVGID_14_);fill:url(#SVGID_15_);}
</style>
<g>
	<linearGradient id="SVGID_1_" gradientUnits="userSpaceOnUse" x1="13.8974" y1="8.7791" x2="13.8974" y2="3.1332">
		<stop  offset="0" style="stop-color:#7D7D7D"/>
		<stop  offset="0.2342" style="stop-color:#626262"/>
		<stop  offset="0.5945" style="stop-color:#3C3C3C"/>
		<stop  offset="0.7853" style="stop-color:#2E2E2E"/>
	</linearGradient>
	<path class="st1" d="M11.5,3.1c0,0-3.4,1-3.3,5.6h11.5C19.7,8.8,18.5,3.1,11.5,3.1z"/>
	<path class="st0" d="M49.4,9.8C49,6.7,49,5.5,46.8,4.3c-1.8-1-2.5-0.5-3.5-0.5l-6-0.4c-0.1,0-2.6,0.1-2.6,0.1l-2.4,0.2l-7.1-0.2
		l-4-0.3h-9.7c0.1,0,0.2,0,0.2,0c-0.1,0-0.2,0-0.2,0c0.1,0,0.1,0,0.2,0c-0.1,0-0.1,0-0.1,0c0.1,0,0.1,0,0.2,0c-0.1,0-0.1,0-0.1,0
		c0.1,0,0.1,0,0.2,0c-0.1,0-0.1,0-0.1,0c0.1,0,0.1,0,0.2,0c-0.1,0-0.1,0-0.1,0c0,0,0.1,0,0.2,0c-0.1,0-0.1,0-0.1,0c0,0,0.1,0,0.2,0
		c-0.1,0-0.1,0-0.1,0c0,0,0.1,0,0.2,0c-0.1,0-0.1,0-0.1,0c0,0,0.1,0,0.2,0c-0.1,0-0.1,0-0.1,0c0,0,0.1,0,0.1,0c-0.1,0-0.1,0-0.1,0
		c0,0,0.1,0,0.1,0c-0.1,0-0.1,0-0.1,0c0,0,0.1,0,0.1,0c-0.1,0-0.1,0-0.1,0c0,0,0.1,0,0.1,0c-0.1,0-0.1,0-0.1,0c0,0,0.1,0,0.1,0
		c-0.1,0-0.1,0-0.1,0c0,0,0.1,0,0.1,0c0,0-0.1,0-0.1,0c0,0,0.1,0,0.1,0c0,0-0.1,0-0.1,0c0,0,0.1,0,0.1,0c0,0-0.1,0-0.1,0
		c0,0,0.1,0,0.1,0c0,0-0.1,0-0.1,0c0,0,0.1,0,0.1,0c0,0-0.1,0-0.1,0c0,0,0.1,0,0.1,0c0,0-0.1,0-0.1,0c0,0,0.1,0,0.1,0
		c0,0-0.1,0-0.1,0c0,0,0.1,0,0.1,0c0,0-0.1,0-0.1,0c0,0,0.1,0,0.1,0c0,0-0.1,0-0.1,0c0,0,0.1,0,0.1,0c0,0-0.1,0-0.1,0
		c0,0,0.1,0,0.1,0c0,0-0.1,0-0.1,0c0,0,0.1,0,0.1,0c0,0-0.1,0-0.1,0c0,0,0.1,0,0.1,0c0,0-0.1,0-0.1,0c0,0,0.1,0,0.1,0
		c0,0-0.1,0-0.1,0c0,0,0.1,0,0.1,0c0,0-0.1,0-0.1,0c0,0,0.1,0,0.1,0c0,0-0.1,0-0.1,0c0,0,0.1,0,0.1,0c0,0-0.1,0-0.1,0
		c0,0,0.1,0,0.1,0c0,0,0,0,0,0c0,0-0.1,0-0.1,0c0,0,0,0,0.1,0c0,0,0,0,0,0c0,0,0,0,0,0c0,0,0,0,0,0c0,0,0,0,0,0c0,0,0,0,0,0
		c0,0,0,0,0,0c0,0,0.1,0.1,0.1,0.1c0,0,0.1,0,0.1,0.1c1.2,0.9,2.3,2.4,2.4,4.9l2.5,50.1L37.1,48L53,57.2L49.4,9.8z"/>
</g>
<g>
	<defs>
		<path id="SVGID_13_" d="M55.8,54.8L50.4,8.6l-0.1-0.5c-0.7-5.9-5-5.9-6.8-5.9l-9.3,0.2c-0.1,0-0.2,0-0.2,0L21.3,2.5v0l-2.1,0
			l-4.3,0c-0.2,0-2.8-0.1-4.5,1.1c0,0,4.8-2.1,5.8,5.1l4.7,49.3c0,0,2.2-1.4,10.9-7.6c3.2-1.9,5.8-3.8,5.8-3.8s2.4,1.1,6.6,2.8v0
			C52.8,53.5,55.8,54.8,55.8,54.8z"/>
	</defs>
	<clipPath id="SVGID_2_">
		<use xlink:href="#SVGID_13_"  style="overflow:visible;"/>
	</clipPath>
	<g style="clip-path:url(#SVGID_2_);">
		<polygon class="st14" points="58.2,2.8 7.5,5.4 7,-1.3 57.7,-3.6 		"/>
		<polygon class="st15" points="58.6,9.2 8,12.2 7.5,5.4 58.2,2.8 		"/>
		<polygon class="st14" points="59.1,15.7 8.5,18.9 8,12.2 58.6,9.2 		"/>
		<polygon class="st15" points="59.6,22.1 9,25.7 8.5,18.9 59.1,15.7 		"/>
		<polygon class="st14" points="60.1,28.5 9.5,32.5 9,25.7 59.6,22.1 		"/>
		<polygon class="st15" points="60.6,34.9 10,39.3 9.5,32.5 60.1,28.5 		"/>
		<polygon class="st14" points="61.1,41.3 10.5,46.1 10,39.3 60.6,34.9 		"/>
		<polygon class="st15" points="61.6,47.8 11,52.8 10.5,46.1 61.1,41.3 		"/>
		<polygon class="st14" points="62.1,54.2 11.5,59.6 11,52.8 61.6,47.8 		"/>
	</g>
	<linearGradient id="SVGID_4_" gradientUnits="userSpaceOnUse" x1="24.9533" y1="31.8162" x2="24.9533" y2="2.1467">
		<stop  offset="0" style="stop-color:#372F78"/>
		<stop  offset="0.3359" style="stop-color:#38317A"/>
		<stop  offset="0.481" style="stop-color:#3B3681"/>
		<stop  offset="0.5893" style="stop-color:#40408E"/>
		<stop  offset="0.6788" style="stop-color:#484E9F"/>
		<stop  offset="0.7568" style="stop-color:#5260B6"/>
		<stop  offset="0.7645" style="stop-color:#5362B9"/>
		<stop  offset="0.8173" style="stop-color:#515FB5"/>
		<stop  offset="0.872" style="stop-color:#4C55A8"/>
		<stop  offset="0.9274" style="stop-color:#434594"/>
		<stop  offset="0.9816" style="stop-color:#372F78"/>
	</linearGradient>
	<path style="clip-path:url(#SVGID_2_);fill:url(#SVGID_4_);" d="M37.2,7.8c-0.6-4.6-3.1-5.7-5-5.7c0,0-15.1,0.2-17.7,0.2
		c-0.8,0-1.8,0.3-2.1,0.4c-1,0.3-2.1,1-2.1,1S12.5,3.3,14,5c0.5,0.5,0.8,1.9,0.9,3c0.4,5.2,2.5,15,3.3,23.9l21.3-1.7L37.2,7.8z"/>
	<g style="clip-path:url(#SVGID_2_);">
		<polygon class="st15" points="24.2,27.6 22.7,27.7 22.1,26.5 21.8,27.8 20.3,28 21.6,28.7 21.3,30 22.4,29.1 23.7,29.8 23.1,28.5 
					"/>
		<polygon class="st15" points="31.1,26.9 29.7,27 29.1,25.8 28.8,27.1 27.4,27.3 28.6,28 28.4,29.2 29.4,28.4 30.6,29 30.1,27.8 		
			"/>
		<polygon class="st15" points="37.6,26.3 36.3,26.4 35.7,25.2 35.4,26.5 34.1,26.6 35.3,27.3 35,28.5 36,27.7 37.1,28.3 36.6,27.1 
					"/>
		<polygon class="st15" points="23,20.2 21.5,20.3 20.9,19 20.5,20.3 19,20.4 20.3,21.2 20,22.5 21.2,21.7 22.5,22.4 21.9,21.1 		
			"/>
		<polygon class="st15" points="30.3,19.8 28.9,19.8 28.3,18.6 28,19.9 26.6,20 27.8,20.7 27.5,22 28.6,21.2 29.8,21.8 29.3,20.6 		
			"/>
		<polygon class="st15" points="36.8,19.3 35.5,19.4 35,18.2 34.7,19.4 33.4,19.5 34.5,20.3 34.2,21.5 35.2,20.7 36.4,21.4 
			35.9,20.2 		"/>
		<polygon class="st15" points="27.2,23.6 25.8,23.7 25.2,22.5 24.8,23.8 23.4,23.9 24.6,24.6 24.4,26 25.5,25.1 26.7,25.8 
			26.1,24.5 		"/>
		<polygon class="st15" points="33.9,23.1 32.6,23.2 32,22 31.7,23.2 30.4,23.4 31.5,24.1 31.3,25.3 32.3,24.5 33.5,25.1 32.9,23.9 
					"/>
		<polygon class="st15" points="22.4,12.7 20.9,12.7 20.3,11.4 19.9,12.8 18.4,12.8 19.7,13.6 19.5,15 20.6,14.1 21.9,14.9 
			21.3,13.6 		"/>
		<polygon class="st15" points="29.4,12.5 28.1,12.5 27.5,11.2 27.1,12.5 25.7,12.6 26.9,13.4 26.7,14.7 27.7,13.9 29,14.6 
			28.4,13.3 		"/>
		<polygon class="st15" points="36.1,12.3 34.8,12.3 34.2,11.1 33.9,12.3 32.6,12.4 33.7,13.1 33.5,14.4 34.5,13.6 35.6,14.3 
			35.1,13.1 		"/>
		<polygon class="st15" points="26.3,16.3 24.9,16.3 24.3,15.1 24,16.4 22.5,16.5 23.8,17.2 23.5,18.6 24.6,17.7 25.9,18.4 
			25.3,17.2 		"/>
		<polygon class="st15" points="33.1,16 31.8,16 31.2,14.8 30.9,16.1 29.5,16.1 30.7,16.9 30.5,18.2 31.5,17.3 32.7,18 32.1,16.8 		
			"/>
		<polygon class="st15" points="20.8,5.1 19.3,5 18.7,3.7 18.3,5 16.8,5 18.1,5.9 17.8,7.2 19,6.4 20.3,7.2 19.7,5.9 		"/>
		<polygon class="st15" points="28,5.1 26.6,5 26,3.8 25.7,5 24.2,5.1 25.5,5.9 25.2,7.2 26.3,6.4 27.5,7.2 27,5.9 		"/>
		<polygon class="st15" points="34.7,5.1 33.4,5.1 32.8,3.8 32.5,5.1 31.2,5.1 32.3,5.9 32.1,7.1 33.1,6.4 34.3,7.1 33.7,5.9 		"/>
		<polygon class="st15" points="25.5,8.9 24.1,8.9 23.4,7.6 23.1,8.9 21.6,8.9 22.9,9.7 22.6,11.1 23.7,10.2 25,11 24.4,9.7 		"/>
		<polygon class="st15" points="32.4,8.8 31,8.8 30.4,7.5 30.1,8.8 28.7,8.8 29.9,9.6 29.7,10.9 30.7,10.1 31.9,10.8 31.4,9.6 		"/>
	</g>
</g>
</svg>
