<?xml version="1.0" encoding="utf-8"?>
<!-- Generator: Adobe Illustrator 17.0.0, SVG Export Plug-In . SVG Version: 6.00 Build 0)  -->
<!DOCTYPE svg PUBLIC "-//W3C//DTD SVG 1.1//EN" "http://www.w3.org/Graphics/SVG/1.1/DTD/svg11.dtd">
<svg version="1.1" id="Livello_1" xmlns="http://www.w3.org/2000/svg" xmlns:xlink="http://www.w3.org/1999/xlink" x="0px" y="0px"
	 width="768px" height="768px" viewBox="0 0 768 768" enable-background="new 0 0 768 768" xml:space="preserve">
<rect fill="#EEEEEE" width="768" height="768"/>
<g>
	<g>
		<path fill="#CCCCCC" d="M343.753,425.891c0.862,0,1.679-0.11,2.473-0.28c-3.513-1.665-7.018-3.343-10.518-5.036
			C336.808,424.203,339.335,425.891,343.753,425.891z"/>
		<polygon fill="#CCCCCC" points="290.791,338.061 313.92,338.061 318.114,318.282 294.979,318.282 		"/>
		<path fill="#CCCCCC" d="M440.636,346.86c8.118,4.178,16.185,8.462,24.217,12.809C462.994,352.204,456.324,347.429,440.636,346.86z
			"/>
		<path fill="#CCCCCC" d="M399.89,374.601l-0.497,2.181h20.788l0.493-2.519c1.521-7.036,6.201-11.734,13.246-11.734
			c7.713,0,9.894,4.193,8.382,11.067c-1.173,6.033-4.189,8.717-11.392,10.561l-13.917,3.521
			c-16.761,4.354-25.138,11.226-28.661,28.155c-2.682,12.073,0.164,25.818,16.263,25.818c11.056,0,18.097-2.347,25.47-11.738h0.333
			c0,3.016,0,6.534,0.839,9.391h22.131c-1.173-5.202-1.009-9.053,0.835-17.439l10.057-47.432c0.199-0.91,0.369-1.806,0.52-2.69
			c-14.739-7.579-29.578-14.957-44.543-22.084C410.417,353.39,402.732,361.069,399.89,374.601z M434.253,411.982
			c-2.177,9.884-11.061,13.909-17.261,13.909c-6.198,0-7.538-5.695-6.032-12.567c1.674-8.05,6.37-12.577,16.084-14.584
			c3.02-0.675,7.209-2.181,10.905-4.526L434.253,411.982z"/>
		<path fill="#CCCCCC" d="M522.08,368.9c2.349,0,4.856,0.171,7.205,0.337l4.696-22.125c-1.338-0.167-2.848-0.336-4.188-0.336
			c-9.56,0-17.271,5.699-23.8,14.419h-0.338l2.519-12.074h-22.127l-4.219,19.902c7.054,3.953,14.085,7.96,21.047,12.062
			C506.547,372.136,515.022,368.9,522.08,368.9z"/>
		<path fill="#CCCCCC" d="M490.068,439.305l10.375-48.572c-6.907-3.82-13.861-7.56-20.839-11.251l-12.672,59.823H490.068z"/>
		<path fill="#CCCCCC" d="M556.439,413.652l10.225-48.772h13.406l3.354-15.758h-13.405l5.525-25.811h-23.129l-5.535,25.811h-11.736
			l-3.344,15.758h11.732l-7.676,36.343c6.863,4.381,13.652,8.87,20.401,13.424C556.314,414.309,556.366,414.013,556.439,413.652z"/>
		<path fill="#CCCCCC" d="M532.634,416.5c-3.857,18.278-1.676,23.809,16.43,23.809c5.357,0,10.054-0.507,15.251-1.005l1.875-8.984
			c-10.563-7.013-21.319-13.747-32.197-20.273L532.634,416.5z"/>
		<path fill="#FFFFFF" d="M301.655,395.93c3.915,2.155,7.843,4.28,11.781,6.408c-0.369,2.376-0.647,4.613-0.839,6.739
			c-4.135-2.098-8.273-4.211-12.384-6.347L301.655,395.93z M335.074,413.762c-0.106,2.774,0.095,5.028,0.634,6.814
			c3.5,1.693,7.004,3.37,10.518,5.036c2.14-0.447,4.02-1.555,5.699-3.271C346.299,419.521,340.672,416.656,335.074,413.762z
			 M231.153,353.763l1.597,11.158c1.648,0.995,3.285,2.015,4.941,3.003c2.305,1.374,4.627,2.703,6.936,4.063l1.793-8.442
			c-1.45-0.907-2.92-1.793-4.375-2.71C238.395,358.51,234.781,356.135,231.153,353.763z M264.34,383.302
			c5.005,2.814,10.047,5.599,15.093,8.339l1.561-7.379c-5.019-2.89-10.02-5.82-14.994-8.786L264.34,383.302z"/>
		<g>
			<polygon fill="#CCCCCC" points="255.766,319.622 246.42,363.545 244.628,371.986 238.335,401.587 237.998,401.587 232.75,364.92 
				231.153,353.763 226.262,319.622 198.442,319.622 196.321,329.608 194.08,340.124 172.967,439.305 195.093,439.305 
				212.852,355.491 213.199,355.491 224.925,439.305 252.407,439.305 264.34,383.302 266,375.477 277.896,319.622 			"/>
			<polygon fill="#CCCCCC" points="288.441,349.121 280.994,384.262 279.433,391.642 269.331,439.305 292.47,439.305 
				300.213,402.729 301.655,395.93 311.57,349.121 			"/>
			<path fill="#CCCCCC" d="M386.493,381.642c4.526-21.291-3.686-34.866-24.978-34.866c-21.281,0-38.716,10.39-46.591,47.438
				c-0.615,2.879-1.082,5.543-1.488,8.123c-0.369,2.376-0.647,4.613-0.839,6.739c-2.24,24.453,7.205,32.576,26.793,32.576
				c10.627,0,19.032-2.502,25.566-7.261c1.469-1.071,2.815-2.285,4.098-3.582c6.15-6.215,10.225-14.975,12.574-26.036h-22.12
				c-1.866,8.541-4.326,14.244-7.584,17.567c-1.679,1.716-3.559,2.824-5.699,3.271c-0.793,0.17-1.611,0.28-2.473,0.28
				c-4.417,0-6.945-1.689-8.045-5.316c-0.539-1.786-0.739-4.039-0.634-6.814c0.182-4.841,1.26-11.224,2.979-19.384
				c4.354-20.781,8.383-30.842,19.781-30.842c8.715,0,8.377,9.387,6.535,18.106H386.493z"/>
		</g>
		<path fill="#FFFFFF" d="M642.476,499.737c-0.068-3.487-1.15-6.667-2.482-9.573c-1.359-2.935-3.025-5.641-4.827-8.214
			c-3.623-5.148-7.762-9.792-12.055-14.236c-8.638-8.862-17.988-16.873-27.579-24.536c-12.698-10.078-25.872-19.487-39.277-28.532
			c-6.749-4.553-13.538-9.043-20.401-13.424c-0.155-0.1-0.311-0.201-0.466-0.305c-10.722-6.803-21.569-13.405-32.516-19.833
			c-6.962-4.102-13.993-8.108-21.047-12.062c-5.626-3.162-11.294-6.279-16.975-9.354c-8.032-4.346-16.098-8.63-24.217-12.809
			c-11.191-5.758-22.458-11.366-33.792-16.828c-44.128-21.192-89.301-40.338-135.837-56.039c-23.285-7.8-46.884-14.82-71.159-19.883
			c-12.164-2.461-24.47-4.515-37.297-4.98c-6.438-0.15-12.968-0.062-19.985,1.718c-3.473,0.947-7.241,2.311-10.76,5.395
			c-1.721,1.528-3.285,3.598-4.244,5.929c-0.484,1.164-0.844,2.371-1.026,3.553c-0.205,1.114-0.283,2.622-0.26,3.47
			c0.179,4.481,1.597,8.092,3.153,11.295c1.584,3.194,3.454,6.014,5.421,8.665c3.937,5.281,8.313,9.905,12.817,14.304
			c9.044,8.752,18.694,16.525,28.555,23.935c5.868,4.38,11.836,8.596,17.859,12.728l2.24-10.516
			c-4.631-3.428-9.203-6.917-13.716-10.489c-9.404-7.504-18.549-15.341-26.798-23.801c-4.093-4.236-7.981-8.639-11.193-13.226
			c-3.172-4.453-5.805-9.694-5.749-13.138c0.049-1.67,0.324-2.318,1.382-3.318c1.081-0.986,3.144-1.95,5.534-2.546
			c4.828-1.244,10.623-1.429,16.341-1.242c11.557,0.464,23.399,2.439,35.102,4.869c23.458,4.971,46.651,11.998,69.575,19.721
			c45.844,15.63,90.748,34.284,134.885,54.541c6.208,2.843,12.388,5.744,18.553,8.681c14.965,7.127,29.804,14.505,44.543,22.084
			c0.789,0.409,1.583,0.806,2.376,1.212c4.158,2.144,8.309,4.335,12.448,6.525c6.977,3.691,13.932,7.431,20.839,11.251
			c10.248,5.664,20.419,11.476,30.481,17.455c1.032,0.611,2.039,1.249,3.07,1.86c10.878,6.525,21.633,13.26,32.197,20.273
			c8.647,5.74,17.184,11.64,25.497,17.836c9.678,7.257,19.123,14.857,27.769,23.208c4.303,4.189,8.427,8.56,11.974,13.291
			c3.441,4.667,6.681,9.933,6.995,15.208c0.054,2.702-0.868,4.92-2.78,6.617c-1.902,1.707-4.549,2.811-7.309,3.536
			c-5.573,1.434-11.617,1.602-17.581,1.434c-11.997-0.437-24.002-2.413-35.874-4.841c-23.755-4.964-47.108-11.929-70.169-19.666
			c-46.095-15.615-91.052-34.624-134.898-55.759c-0.254-0.129-0.501-0.251-0.761-0.375c-1.282,1.297-2.629,2.511-4.098,3.582
			c0.916,0.421,1.829,0.854,2.747,1.274c44.411,20.31,89.542,39.103,135.815,54.827c23.151,7.777,46.587,14.865,70.57,19.922
			c12.005,2.473,24.143,4.526,36.525,5.009c6.194,0.174,12.475,0.064,18.75-1.527c3.107-0.823,6.287-2.045,8.98-4.404
			c2.747-2.281,4.311-6.242,4.139-9.623L642.476,499.737z"/>
	</g>
	<g>
		<path fill="#CCCCCC" d="M174.126,455.274h8.592l2.122,42.016h-6.999l-0.42-10.302h-12.288l-4.891,10.302h-7.004L174.126,455.274z
			 M177.48,481.631l-0.466-20.707h-0.123l-9.349,20.707H177.48z"/>
		<path fill="#CCCCCC" d="M208.905,485.756c-2.067,7.592-5.654,12.357-13.479,12.357c-9.18,0-10.298-6.826-8.236-16.656
			c2.113-9.828,6.119-16.65,15.3-16.65c9.531-0.12,9.349,7.414,8.464,11.357h-6.352c0.653-2.948,0.653-6.772-3.12-6.652
			c-4.586,0-6.466,4.945-7.939,11.945c-1.474,7.004-1.707,11.946,2.888,11.946c3.527,0.063,5.407-2.883,6.46-7.648H208.905z"/>
		<path fill="#CCCCCC" d="M232.714,485.756c-2.049,7.592-5.64,12.357-13.465,12.357c-9.18,0-10.298-6.826-8.241-16.656
			c2.123-9.828,6.114-16.65,15.295-16.65c9.531-0.12,9.363,7.414,8.478,11.357h-6.356c0.643-2.948,0.643-6.772-3.121-6.652
			c-4.594,0-6.474,4.945-7.948,11.945c-1.461,7.004-1.693,11.946,2.889,11.946c3.527,0.063,5.415-2.883,6.474-7.648H232.714z"/>
		<path fill="#CCCCCC" d="M241.365,482.279l-0.356,1.825c-0.94,4.239-1.524,9.654,3.231,9.654c4.536,0,6.132-5.183,6.538-7.062h6.01
			c-1.474,7-6.657,11.417-13.543,11.417c-5.17,0-11.238-1.533-8.181-16.182c1.766-8.298,5.416-17.124,15.359-17.124
			c8.834,0,10.061,5.297,8.181,14.122l-0.698,3.35H241.365z M252.485,477.925l0.356-1.701c0.875-4.003,0.232-7.064-3.354-7.064
			c-4.065,0-6.178,4.002-7.064,8.122l-0.123,0.643H252.485z"/>
		<path fill="#CCCCCC" d="M276.066,474.87l0.188-0.827c0.529-2.527,0.169-4.883-3.121-4.883c-2.532,0-4.832,1.173-5.416,4.12
			c-0.529,2.473,0.351,3.468,3.472,4.645l3.76,1.415c4.362,1.589,6.005,4.116,4.951,9.121c-1.47,6.768-7,9.652-13.416,9.652
			c-8.011,0-9.66-3.706-8.309-9.83l0.252-1.177h5.64l-0.233,1.005c-0.762,3.644,0.118,5.647,3.769,5.647
			c3.462,0,5.53-1.769,6.164-4.653c0.484-2.351-0.402-3.88-2.514-4.647l-4.769-1.825c-4.426-1.643-5.885-4.061-4.827-9.115
			c1.236-5.946,6.113-8.711,12.652-8.711c8.059,0,8.884,4.705,8.059,8.651l-0.292,1.411H276.066z"/>
		<path fill="#CCCCCC" d="M298.834,474.87l0.183-0.827c0.534-2.527,0.173-4.883-3.117-4.883c-2.532,0-4.832,1.173-5.421,4.12
			c-0.529,2.473,0.357,3.468,3.477,4.645l3.76,1.415c4.358,1.589,6.005,4.116,4.951,9.121c-1.47,6.768-6.999,9.652-13.415,9.652
			c-8.011,0-9.66-3.706-8.309-9.83l0.247-1.177h5.645l-0.238,1.005c-0.761,3.644,0.124,5.647,3.775,5.647
			c3.462,0,5.53-1.769,6.164-4.653c0.483-2.351-0.401-3.88-2.514-4.647l-4.769-1.825c-4.426-1.643-5.885-4.061-4.827-9.115
			c1.237-5.946,6.114-8.711,12.652-8.711c8.059,0,8.884,4.705,8.059,8.651l-0.296,1.411H298.834z"/>
		<path fill="#CCCCCC" d="M320.6,464.808c9.24,0,10.418,6.822,8.301,16.65c-2.058,9.83-6.535,16.656-15.359,16.656
			c-8.77,0-10.295-6.826-8.241-16.656C307.426,471.629,311.419,464.808,320.6,464.808z M314.54,493.403
			c4.646,0,6.302-3.884,8-11.946c1.474-7,1.706-11.945-2.938-11.945c-4.595,0-6.475,4.945-7.949,11.945
			C309.955,489.52,309.955,493.403,314.54,493.403z"/>
		<path fill="#CCCCCC" d="M334.841,465.632h6.347l-1.054,4.939h0.114c2.187-3.533,5.002-5.764,8.601-5.764
			c0.698,0,1.114,0.114,1.46,0.232l-1.351,6.476c-0.406-0.12-1.523-0.352-2.596-0.352c-2.874,0-6.579,1.297-7.875,7.178
			l-4.001,18.949h-6.357L334.841,465.632z"/>
		<path fill="#CCCCCC" d="M351.363,465.632h6.357l-6.712,31.658h-6.347L351.363,465.632z M353.654,454.8h6.365l-1.305,6.358h-6.351
			L353.654,454.8z"/>
		<path fill="#CCCCCC" d="M375.601,482.279l-0.361,1.825c-0.945,4.239-1.519,9.654,3.235,9.654c4.536,0,6.129-5.183,6.535-7.062
			h6.009c-1.473,7-6.657,11.417-13.538,11.417c-5.174,0-11.243-1.533-8.181-16.182c1.765-8.298,5.415-17.124,15.354-17.124
			c8.834,0,10.066,5.297,8.185,14.122l-0.702,3.35H375.601z M386.716,477.925l0.357-1.701c0.876-4.003,0.236-7.064-3.354-7.064
			c-4.066,0-6.179,4.002-7.063,8.122l-0.123,0.643H386.716z"/>
		<path fill="#CCCCCC" d="M410.426,465.632h6.347l-1.058,4.939h0.113c2.186-3.533,5.001-5.764,8.601-5.764
			c0.702,0,1.113,0.114,1.465,0.232l-1.355,6.476c-0.402-0.12-1.52-0.352-2.592-0.352c-2.875,0-6.586,1.297-7.876,7.178
			l-4.006,18.949h-6.351L410.426,465.632z"/>
		<path fill="#CCCCCC" d="M426.948,465.632h6.356l-6.712,31.658h-6.352L426.948,465.632z M429.248,454.8h6.351l-1.291,6.358h-6.353
			L429.248,454.8z"/>
		<path fill="#CCCCCC" d="M454.548,485.756c-2.067,7.592-5.653,12.357-13.478,12.357c-9.181,0-10.3-6.826-8.237-16.656
			c2.113-9.828,6.12-16.65,15.299-16.65c9.533-0.12,9.351,7.414,8.464,11.357h-6.351c0.653-2.948,0.653-6.772-3.115-6.652
			c-4.591,0-6.47,4.945-7.94,11.945c-1.477,7.004-1.711,11.946,2.884,11.946c3.528,0.063,5.407-2.883,6.461-7.648H454.548z"/>
		<path fill="#CCCCCC" d="M476.71,490.692c-0.232,1.183,0.239,2.241,1.183,2.241c0.42,0,0.82-0.06,1.054-0.178l-0.88,4.12
			c-0.823,0.35-1.995,0.762-3.236,0.762c-2.819,0-4.94-1.115-4.466-4.172h-0.124c-2.349,3.113-5.175,4.647-8.883,4.647
			c-5.065,0-7.648-2.819-6.352-8.885c1.533-7.062,4.887-8.537,9.472-9.948l5.234-1.355c2.418-0.643,4.001-1.295,4.589-4.056
			c0.595-2.884,0-4.709-3.348-4.709c-4.241,0-5.467,2.997-6.12,6.063h-6.01c1.415-6.708,4.951-10.416,13.306-10.416
			c5.589,0,9.581,2.175,8.419,7.76L476.71,490.692z M472.832,480.577c-1.879,1.291-5.589,2.057-7.642,2.944
			c-2.003,0.884-3.186,2.765-3.715,5.119c-0.524,2.648,0.296,4.764,2.937,4.764c3.839,0,6.302-2.883,7.303-7.53L472.832,480.577z"/>
		<path fill="#CCCCCC" d="M486.484,465.632h5.997l-0.762,3.706h0.174c2.171-2.83,5.529-4.531,8.537-4.531
			c4.52,0,5.931,2.175,6.351,4.823c2.474-3.058,5.175-4.823,9.008-4.823c4.47,0,7.236,2.296,5.931,8.408l-5.111,24.074h-6.36
			l4.591-21.718c0.885-4.116,0-5.705-2.588-5.705c-2.587,0-5.471,2.063-6.357,6.18l-4.531,21.244h-6.351l4.59-21.718
			c0.876-4.116,0-5.705-2.652-5.705c-2.531,0-5.41,2.063-6.291,6.18l-4.537,21.244h-6.351L486.484,465.632z"/>
		<path fill="#CCCCCC" d="M529.66,455.274h6.356l-3.002,14.064h0.118c1.761-2.83,4.698-4.531,8.116-4.531
			c4.829,0,9.3,2.175,6.351,16.239c-2.349,10.886-6.583,17.066-13.993,17.066c-4.535,0-5.539-2.648-5.946-4.709h-0.124l-0.82,3.887
			h-6.001L529.66,455.274z M532.953,493.051c4.412,0,6.351-4.53,7.884-11.713c1.761-8.533,1.119-11.472-2.527-11.472
			c-4.887,0-6.708,4.355-8.305,11.947C528.541,488.575,528.605,493.051,532.953,493.051z"/>
		<path fill="#CCCCCC" d="M553.719,465.632h6.351l-6.704,31.658h-6.356L553.719,465.632z M556.01,454.8h6.36l-1.305,6.358h-6.347
			L556.01,454.8z"/>
	</g>
</g>
</svg>
