<?xml version="1.0" encoding="utf-8"?>
<!-- Generator: Adobe Illustrator 25.4.1, SVG Export Plug-In . SVG Version: 6.00 Build 0)  -->
<svg version="1.1" id="Livello_1" xmlns="http://www.w3.org/2000/svg" xmlns:xlink="http://www.w3.org/1999/xlink" x="0px" y="0px"
	 viewBox="0 0 1374.5 410.8" style="enable-background:new 0 0 1374.5 410.8;" xml:space="preserve">
<style type="text/css">
	.st0{fill:#F5DD16;}
	.st1{fill:#E1001A;}
	.st2{fill:#FFFFFF;}
</style>
<g>
	<path class="st0" d="M1083.6,308.9h68.4h10.7c10.6,0,18.7-5.1,19.8-15.4c0,0,1.2-10.5,1.5-13.8l7.3-76.5l17.1-162.7
		c0.6-5.5-1.2-10.9-5-15.2c-3.9-4.4-9.6-6.8-15.5-6.8h-12.2h-103.1H251.4H224h-47.3c-4.7,0-8.9,3.8-9.3,8.5
		c-0.4,4.7,3.1,8.5,7.8,8.5H209h11.5c4.7,0,8.2,3.8,7.8,8.5c-0.4,4.7-4.6,8.5-9.3,8.5h-11.5h-61.4c-4.7,0-8.9,3.8-9.3,8.5
		c-0.4,4.7,3.1,8.5,7.8,8.5H206h40.9c4.7,0,8.2,3.8,7.8,8.5c-0.4,4.7-4.6,8.5-9.3,8.5h-16.3h-24.6h-11.4c-4.7,0-8.9,3.8-9.3,8.5
		c-0.4,4.7,3.1,8.5,7.8,8.5h11.4h24.6h4.8c4.7,0,8.2,3.8,7.8,8.5c-0.4,4.7-4.6,8.5-9.3,8.5h-29.4h-84.6c-4.7,0-8.9,3.8-9.3,8.5
		c-0.4,4.7,3.1,8.5,7.8,8.5h84.6h40.9h16.9c4.7,0,8.2,3.8,7.8,8.5c-0.4,4.7-4.6,8.5-9.3,8.5h-16.9h-40.9h-39.9
		c-4.7,0-8.9,3.8-9.3,8.5c-0.4,4.7,3.1,8.5,7.8,8.5h39.9H238h48.3c4.7,0,8.2,3.8,7.8,8.5c-0.4,4.7-4.6,8.5-9.3,8.5h-56.9h-32.2h-1.7
		c-4.7,0-8.9,3.8-9.3,8.5c-0.4,4.7,3.1,8.5,7.8,8.5h1.7h32.2h8.6c4.7,0,8.2,3.8,7.8,8.5c-0.4,4.7-4.6,8.5-9.3,8.5h-40.9h-57.8
		c-4.7,0-8.9,3.8-9.3,8.5c-0.4,4.7,3.1,8.5,7.8,8.5h57.8h21c4.7,0,8.2,3.8,7.8,8.5c-0.4,4.7-4.6,8.5-9.3,8.5h-21h-72.9
		c-4.7,0-8.9,3.8-9.3,8.5c-0.4,4.7,3.1,8.5,7.8,8.5h72.9h8.7c4.7,0,8.2,3.8,7.8,8.5c-0.4,4.7-4.6,8.5-9.3,8.5h-8.7h-28.4
		c-4.7,0-8.9,3.8-9.3,8.5c-0.4,4.7,3.1,8.5,7.8,8.5h40.1c0.6,0.1,1.1,0.1,1.7,0.1h798.3h46.4H1083.6z M252.4,52.6
		c-4.7,0-8.2-3.8-7.8-8.5c0.4-4.7,4.6-8.5,9.3-8.5s8.2,3.8,7.8,8.5C261.2,48.8,257.1,52.6,252.4,52.6z M273.7,112.4
		c-0.4,4.7-4.6,8.5-9.3,8.5c-4.7,0-8.2-3.8-7.8-8.5c0.4-4.7,4.6-8.5,9.3-8.5C270.6,103.9,274.1,107.7,273.7,112.4z M236.6,283.8
		c-0.4,4.7-4.6,8.5-9.3,8.5c-4.7,0-8.2-3.8-7.8-8.5c0.4-4.7,4.6-8.5,9.3-8.5C233.5,275.3,237,279.1,236.6,283.8z"/>
	<g>
		<path d="M1233.4,311.5c-9.2,4.1-16.4,11.4-20.5,20.5c-8.6,19.2-5.2,39.9,8.9,54c14.1,14.1,34.7,17.5,54,8.9
			c9.2-4.1,16.4-11.4,20.5-20.5c8.6-19.2,5.2-39.9-8.9-54C1273.3,306.4,1252.6,302.9,1233.4,311.5z M1273.7,366.4
			c-1.4,2.4-3.5,4.5-5.9,5.9c-22.3,12.9-45.2-10-32.3-32.3c1.4-2.4,3.5-4.5,5.9-5.9C1263.7,321.2,1286.6,344.2,1273.7,366.4z"/>
		<path class="st1" d="M955,318H235.8l-2.7,30.1c-0.4,5,4,9.2,9.7,9.2h700.2c-0.7-9.3,1-18.9,5.2-28.3
			C949.9,325,952.2,321.3,955,318z"/>
		<path d="M975.5,311.5c-9.2,4.1-16.4,11.4-20.5,20.5c-8.6,19.2-5.2,39.9,8.9,54c14.1,14.1,34.7,17.5,54,8.9
			c9.2-4.1,16.4-11.4,20.5-20.5c8.6-19.2,5.2-39.9-8.9-54C1015.4,306.4,994.7,302.9,975.5,311.5z M1016,366.7c-1.4,2.5-3.5,4.5-6,6
			c-22.7,13.2-46-10.2-32.8-32.8c1.4-2.5,3.5-4.5,6-6C1005.9,320.7,1029.2,344,1016,366.7z"/>
		<path class="st1" d="M1336.1,257.4l-10.9-0.5l-28-61.9c-5.7-12.6-18.3-20.7-32.1-20.7h-55.3h-8.5l-12.7,120.9
			c-1.4,13-12.4,22.8-25.8,22.8h-125.5c9.6,11,14.1,24.9,13,39.3h150.5c-0.7-9.3,1-18.9,5.2-28.3c4.8-10.8,13.5-19.5,24.3-24.3
			c22.1-9.9,46-5.9,62.3,10.4c11.3,11.3,16.7,26.3,15.6,41.8l35.9,0.1c4.7,0,8.6-2.9,8.9-6.6l6.2-73.2
			C1360.1,266.9,1349.7,258,1336.1,257.4z M1218.5,254.3c2.5-27.2,5-55.6,5-55.6h40.3c5.6,0,10.7,3.8,13,9.8l17.8,45.8H1218.5z"/>
	</g>
	<g>
		<path class="st0" d="M132,35.5h12.8c4.7,0,8.9-3.8,9.3-8.5c0.4-4.7-3.1-8.5-7.8-8.5h-12.8c-4.7,0-8.9,3.8-9.3,8.5
			C123.8,31.7,127.3,35.5,132,35.5z"/>
		<path class="st0" d="M71.9,138h19.7c4.7,0,8.9-3.8,9.3-8.5l0,0c0.4-4.7-3.1-8.5-7.8-8.5H73.4c-4.7,0-8.9,3.8-9.3,8.5l0,0
			C63.7,134.2,67.2,138,71.9,138z"/>
		<path class="st0" d="M66.1,172.2h2.4c4.7,0,8.9-3.8,9.3-8.5c0.4-4.7-3.1-8.5-7.8-8.5h-2.4c-4.7,0-8.9,3.8-9.3,8.5
			C57.9,168.4,61.4,172.2,66.1,172.2z"/>
		<path class="st0" d="M42.9,120.9c-4.7,0-8.9,3.8-9.3,8.5l0,0c-0.4,4.7,3.1,8.5,7.8,8.5c4.7,0,8.9-3.8,9.3-8.5l0,0
			C51.2,124.8,47.7,120.9,42.9,120.9z"/>
		<path class="st0" d="M98.2,189.3c-4.7,0-8.9,3.8-9.3,8.5c-0.4,4.7,3.1,8.5,7.8,8.5h10.1c4.7,0,8.9-3.8,9.3-8.5
			c0.4-4.7-3.1-8.5-7.8-8.5H98.2z"/>
		<path class="st0" d="M99.9,95.3c-0.4,4.7,3.1,8.5,7.8,8.5h58.2c4.7,0,8.9-3.8,9.3-8.5c0.4-4.7-3.1-8.5-7.8-8.5h-58.2
			C104.5,86.8,100.3,90.6,99.9,95.3z"/>
		<path class="st0" d="M130.9,155.1H98.5c-4.7,0-8.9,3.8-9.3,8.5c-0.4,4.7,3.1,8.5,7.8,8.5h32.4c4.7,0,8.9-3.8,9.3-8.5
			C139.1,158.9,135.6,155.1,130.9,155.1z"/>
		<path class="st0" d="M123.6,197.8c-0.4,4.7,3.1,8.5,7.8,8.5h32.4c4.7,0,8.9-3.8,9.3-8.5c0.4-4.7-3.1-8.5-7.8-8.5h-32.4
			C128.2,189.3,124,193.1,123.6,197.8z"/>
		<path class="st0" d="M88.7,257.6H74.8c-4.7,0-8.9,3.8-9.3,8.5c-0.4,4.7,3.1,8.5,7.8,8.5h13.9c4.7,0,8.9-3.8,9.3-8.5
			C96.9,261.4,93.4,257.6,88.7,257.6z"/>
		<path class="st0" d="M131.6,291.8h-26.3c-4.7,0-8.9,3.8-9.3,8.5c-0.4,4.7,3.1,8.5,7.8,8.5h26.3c4.7,0,8.9-3.8,9.3-8.5
			C139.8,295.6,136.3,291.8,131.6,291.8z"/>
		<path class="st0" d="M116.4,232c0.4-4.7-3.1-8.5-7.8-8.5H55.2c-4.7,0-8.9,3.8-9.3,8.5c-0.4,4.7,3.1,8.5,7.8,8.5h53.4
			C111.8,240.5,116,236.7,116.4,232z"/>
		<path class="st0" d="M84.8,69.7h30.1c4.7,0,8.9-3.8,9.3-8.5c0.4-4.7-3.1-8.5-7.8-8.5H86.3c-4.7,0-8.9,3.8-9.3,8.5
			C76.6,65.9,80.1,69.7,84.8,69.7z"/>
	</g>
	<g>
		<path d="M363.8,108.1c-0.3,1.8-0.4,3.3-0.4,4.3c0,1.8,0.4,3.1,1.2,3.8c0.8,0.8,2,1.5,3.7,1.5c1.9,0,3.5-0.4,4.9-1.8
			c1.5-1.5,2.2-3.4,2.9-6.5c0.4-2.1,0.5-4.3,0.5-5.6c0-3-1.7-4.6-5-6.1l-7.3-3.5c-5.8-2.7-8.1-7.1-8.1-12.2c0-3.2,0.3-5.8,0.9-9
			c1.1-5.3,3-10.4,6.3-13.8c3.5-3.5,7.6-5.6,15-5.6c7.1,0,11,1.7,14,4.7c2.2,2.2,3.4,5.9,3.4,9.7c0,2.1-0.1,4.6-0.6,7.6H381
			c0.4-2.1,0.5-3.5,0.5-4.6c0-1.8-0.3-3-1.1-3.7c-0.5-0.5-1.5-1.2-3.1-1.2s-2.9,0.4-4,1.6c-1.3,1.3-2,3.7-2.3,5.3
			c-0.3,1.6-0.5,3.2-0.5,4.6c0,2.4,1.3,4.1,3.8,5.3l6,2.9c7.9,3.7,10.7,7.3,10.7,13.7c0,3-0.2,6.3-0.9,10
			c-1.7,8.4-3.5,12.1-6.6,15.3c-3.8,3.8-8.3,5.6-16.5,5.6c-7,0-11.2-1.7-14.2-4.7c-2.4-2.4-3.8-6-3.8-9.9c0-2.2,0.2-4.5,0.7-7.6
			C349.6,108.1,363.8,108.1,363.8,108.1z"/>
		<path d="M409.4,54.4h19.1c6.6,0,10.3,1.3,13.4,4.3c2.7,2.7,3.8,6.5,3.8,10.7c0,2.9-0.3,6.3-0.8,9c-3.8,19.1-11.4,23.9-23.9,23.9
			h-7l-5.4,27.2h-14.1L409.4,54.4z M421.6,89.6c5.8,0,7.5-3.8,9.1-11.3c0.3-1.6,0.7-4.1,0.7-5.9c0-3.6-1.4-5.4-5.6-5.4H421
			l-4.5,22.6C416.5,89.6,421.6,89.6,421.6,89.6z"/>
		<path d="M458.1,54.4H491L488.5,67h-18.8L466,85.3h16.1l-2.5,12.7h-16.1l-3.7,18.9h18.8l-2.5,12.7h-32.9L458.1,54.4z"/>
		<path d="M499.7,54.4h19.4c7.9,0,11.5,2.6,14.5,7.4c1.8,2.9,2.5,6.4,2.5,10.9c0,3.4-1.4,11-3,19.2c-3.7,18.5-5.8,26.3-10.8,31.2
			c-4.4,4.4-9.4,6.4-17,6.4h-20.7L499.7,54.4z M506.5,116.8c3.2,0,5.1-1.4,6.4-3.3c2.3-3.5,4.3-13.4,6-21.7c1.4-6.7,3-14.9,3-19.2
			c0-1.6-0.4-3.1-1.4-4.1c-0.8-0.9-2.1-1.5-3.7-1.5h-5.6l-9.9,49.8L506.5,116.8L506.5,116.8z"/>
		<path d="M549.7,54.4h14.1l-15,75.1h-14.1L549.7,54.4z"/>
		<path d="M559.6,119.3L588.8,67H571l2.5-12.7h32.9l-2,10.2l-29.2,52.2h19l-2.5,12.7h-34.1L559.6,119.3z"/>
		<path d="M614.8,54.4H629l-15,75.1h-14.1L614.8,54.4z"/>
		<path d="M641.8,59.5c4-4,8.7-5.9,15.7-5.9c7.8,0,12.4,2.7,15,7.3c1.9,3.4,2.4,6.1,2.4,10.9c0,4.6-1.1,11.7-2.9,20.3
			c-4.4,21.5-6.6,27.6-11.5,32.5c-4,4-8.7,5.9-15.7,5.9c-7.8,0-12.4-2.7-15-7.3c-1.9-3.4-2.4-6.1-2.4-10.9c0-4.6,1.1-11.7,2.9-20.3
			C634.8,70.4,637,64.3,641.8,59.5z M641.6,112c0,3.5,1.2,5.7,4.6,5.7c1.9,0,3.3-0.7,4.5-2c2.4-2.4,4-7.9,7.2-23.7
			c1.5-7.4,2.9-15.5,2.9-20c0-3.5-1.2-5.7-4.6-5.7c-1.9,0-3.3,0.7-4.5,2c-2.4,2.4-4,7.9-7.2,23.7C643,99.3,641.6,107.4,641.6,112z"
			/>
		<path d="M688.5,54.4H700l7.6,38.1l7.1-38.1h14.1l-15,75.1h-11l-7.7-38l-7.5,38h-14.1L688.5,54.4z"/>
		<path d="M739.7,54.4h32.9L770.1,67h-18.8l-3.7,18.2h16.1l-2.5,12.7h-16.1l-3.7,18.9h18.8l-2.5,12.7h-32.9L739.7,54.4z"/>
		<path d="M826.6,107.2c-3.2,16-10.2,23.1-23.7,23.1c-7.5,0-12.1-2.7-14.7-7.3c-1.9-3.4-2.4-6.1-2.4-10.9c0-4.6,1.1-11.7,2.9-20.3
			c4.4-21.5,6.6-27.6,11.5-32.5c4-4,8.5-5.9,15.6-5.9c6,0,10.9,1.7,13.9,5.5c2.2,2.7,3.6,7.3,3.6,11.6c0,1.5,0,3-0.2,4.7h-14.1
			c0.2-1.6,0.2-2.6,0.2-3.9c0-2.9-0.9-5.3-4.5-5.3c-2,0-3.4,0.7-4.6,2c-2.4,2.4-4,7.9-7.2,23.7c-1.5,7.4-2.9,15.5-2.9,20
			c0,3.5,1.2,5.7,4.5,5.7c4.4,0,6.6-3.5,7.8-9.3l1.8-9h-5.9l2.2-11.3h20L826.6,107.2z"/>
		<path d="M846.3,54.4h19.9c11.8,0,16.6,6,16.6,14.1c0,2.5-0.3,5.5-0.9,8.8c-2.6,13-5.9,16.7-12.1,19.9l4,32.3h-14.1l-3.2-29.6h-5.1
			l-5.9,29.6h-14.1L846.3,54.4z M859.9,87.6c5.4,0,6.9-5.6,7.8-10.3c0.3-1.8,0.6-3.6,0.6-5.2c0-3.1-0.9-5.1-4.9-5.1h-5.6l-4.1,20.6
			H859.9z"/>
		<path d="M913.3,129.5l0.1-12.1h-16.5l-4.9,12.1h-15.2l33.3-75.1h13.9l3.4,75.1H913.3z M913.3,75.3L902,104.7h11.2L913.3,75.3z"/>
		<path d="M949.4,67h-12l2.5-12.7h38.2L975.5,67h-12l-12.4,62.4h-14.1L949.4,67z"/>
		<path d="M985,54.4h14.1l-11.1,55.4c-0.2,1.2-0.3,2.1-0.3,3c0,3.3,1.9,5,5.1,5c3.8,0,6.2-2.6,7.2-7.4l11.2-55.9h14.1l-11.2,56
			c-1.3,6.3-3.4,11.1-7.7,14.9c-4,3.6-8.5,5.1-15.4,5.1c-6,0-10.1-1.7-13.2-4.7c-2.9-2.9-4.2-6.6-4.2-11.4c0-1.7,0.2-3.8,0.5-5.4
			L985,54.4z"/>
		<path d="M1035.7,54.4h14.1l-15,75.1h-14.1L1035.7,54.4z"/>
		<path d="M1066.8,67h-12l2.5-12.7h38.2L1093,67h-12l-12.4,62.4h-14.1L1066.8,67z"/>
		<path d="M1114.3,129.5l0.1-12.1H1098l-4.9,12.1h-15.2l33.3-75.1h13.9l3.4,75.1H1114.3z M1114.3,75.3l-11.3,29.4h11.2L1114.3,75.3z
			"/>
	</g>
	<g>
		<path class="st2" d="M666.3,158.3c-1.2-1.3-2.8-2.2-4.5-2.5c0-0.1-1.6-0.1-1.6-0.1h-234h-65.2c-4.2,0-7.3,2-7.7,6l-10.2,118.5
			c-0.2,2.2,0.5,4.3,2,6c1.2,1.3,2.8,2.2,4.5,2.5c0,0.1,1.6,0.1,1.6,0.1h299.1c4.2,0,7.3-2,7.7-6l10.2-118.5
			C668.5,162.1,667.8,160,666.3,158.3z"/>
		<g>
			<g>
				<path d="M514.1,197.9c1.4-1.5,3.2-2.4,6-2.4c2.6,0,4.4,0.9,5.3,2.6c0.6,1,0.8,2.1,0.8,3.5c0,0.5,0,1-0.1,1.8h-4.8
					c0.1-0.6,0.1-1,0.1-1.4c0-0.7-0.1-1.1-0.5-1.6c-0.3-0.3-0.7-0.5-1.4-0.5c-0.8,0-1.5,0.3-2.1,1.1c-0.9,1.2-1.4,3.6-2.3,7.8
					c-0.6,2.9-1.1,5.6-1.1,6.7c0,0.8,0.2,1.4,0.6,1.8c0.3,0.3,0.8,0.4,1.3,0.4c0.6,0,1.3-0.2,1.8-0.7c0.7-0.6,1-1.5,1.4-2.8h4.8
					c-0.6,2.7-1.4,4.2-2.5,5.5c-1.4,1.5-3.2,2.4-6.1,2.4c-2.5,0-4.2-0.8-5.2-2.4c-0.6-1-1-2.2-1-3.9c0-1.5,0.4-3.7,1-6.9
					C511.6,202.4,512.5,199.8,514.1,197.9z"/>
				<path d="M530.7,197.9c1.3-1.5,3.1-2.4,6-2.4c2.6,0,4.4,0.9,5.3,2.6c0.6,1,0.8,2.1,0.8,3.7c0,1.5-0.3,3.7-1,6.9
					c-1.4,6.7-2.2,9-3.9,10.9c-1.3,1.5-3.1,2.4-6,2.4c-2.6,0-4.4-0.9-5.4-2.6c-0.5-1-0.8-2.1-0.8-3.8c0-1.5,0.3-3.7,1-6.9
					C528.2,202.1,529,199.8,530.7,197.9z M537.9,202.1c0-0.7-0.1-1.3-0.4-1.7c-0.3-0.3-0.7-0.6-1.4-0.6c-0.8,0-1.5,0.3-2.1,1
					c-0.9,1.2-1.5,3.8-2.3,7.9c-0.6,2.9-1,5.6-1,6.7c0,0.7,0.1,1.3,0.4,1.7c0.3,0.3,0.7,0.6,1.4,0.6c0.8,0,1.5-0.3,2.1-1
					c0.9-1.2,1.5-3.8,2.3-7.9C537.5,205.9,537.9,203.2,537.9,202.1z"/>
				<path d="M547.2,195.9h4.7l-0.4,1.9c0.6-0.6,1.2-1.2,1.9-1.6c0.6-0.3,1.5-0.6,2.5-0.6c2.4,0,3.4,1,4.1,2.1
					c0.5,0.9,0.7,1.8,0.7,3.1c0,0.6-0.1,1.4-0.4,2.7l-3.6,18.3h-4.9l3.6-18.2c0.1-0.7,0.2-1.2,0.2-1.6c0-1.1-0.7-2-2-2
					c-1.3,0-2.6,0.8-3.1,3.6l-3.6,18.2H542L547.2,195.9z"/>
				<path d="M572.2,194.2c0.5-2.9,1.3-4.7,3.2-6.2c1.2-0.9,3-1.5,5-1.5c2.2,0,3.9,0.6,4.9,1.9c0.7,1,1.2,2.1,1.2,3.7
					c0,0.9-0.1,2.4-0.4,3.9c-0.6,2.8-1,4.2-2,5.4c-0.6,0.8-1.3,1.4-2.2,1.9c1.5,0.9,2.1,2.4,2.1,4.1c0,1.2-0.3,2.7-0.6,4.4
					c-1,4.9-1.6,6.6-3.3,8.4c-1.3,1.3-3.1,2-5.7,2c-2.1,0-4.2-0.7-5.2-2.1c-0.7-0.9-1.2-2.1-1.2-3.7c0-0.8,0.1-1.6,0.2-2.6l0.3-1.4
					h4.9l-0.3,1.6c-0.1,0.5-0.2,1.1-0.2,1.6c0,1.5,0.8,2.3,2,2.3c0.8,0,1.4-0.2,1.9-0.8c0.7-0.8,1.1-1.7,1.8-5.2
					c0.5-2.4,0.6-3.5,0.6-4.2c0-1.2-0.6-2.1-2-2.1h-1.6l0.9-4.3h1.4c0.7,0,1.3-0.2,1.7-0.7c0.8-0.9,1-1.7,1.6-4.4
					c0.3-1.6,0.5-2.5,0.5-3.3c0-1-0.5-1.9-1.7-1.9c-1.3,0-2.3,0.9-2.8,3l-0.5,2.4h-4.9L572.2,194.2z"/>
				<path d="M592.6,194.9l-3.1,1.2l-0.6-1.7l3.2-1l-2.5-2.2l1.2-1.3l2.3,2.3l0.6-3.3l1.7,0.3l-0.7,3.2l3-1.2l0.7,1.7l-3.2,1l2.5,2.2
					l-1.2,1.3l-2.3-2.2l-0.6,3.2l-1.7-0.3L592.6,194.9z"/>
				<path d="M522.3,269l0.1-7h-7.7l-2.8,7h-5.5l15-34.8h5.1l1.1,34.8H522.3z M522.4,242.2l-5.9,15.1h5.8L522.4,242.2z"/>
				<path d="M536.2,234.2h8.2c5,0,7,2.5,7,6.3c0,1.1-0.1,2.4-0.4,4c-1.2,6.1-2.9,7.9-5.7,9.2l1.9,15.3h-5.2l-1.6-14.4h-3l-2.9,14.4
					h-5.2L536.2,234.2z M541.3,250.1c2.5,0,3.8-2.1,4.4-5.6c0.2-1,0.3-2,0.3-2.8c0-1.8-0.6-2.8-2.7-2.8h-2.9l-2.2,11.2L541.3,250.1
					L541.3,250.1z"/>
				<path d="M558.9,238.9h-5.5l0.9-4.6h16.2l-0.9,4.6h-5.5l-6,30.1h-5.2L558.9,238.9z"/>
				<path d="M572.9,234.2h5.2l-6.9,34.8H566L572.9,234.2z"/>
				<path d="M578.1,251.6c2.1-10.5,3.2-13.2,5.4-15.3c1.7-1.7,3.6-2.4,6.4-2.4c2.5,0,4.5,0.8,5.8,2.3c0.9,1.2,1.5,3.1,1.5,4.9
					c0,0.7,0,1.4-0.1,2.2h-5.2c0.1-0.7,0.1-1.3,0.1-2c0-1.6-0.5-2.8-2.4-2.8c-1.1,0-1.9,0.3-2.5,1c-1.4,1.4-2,3.5-3.8,12.1
					c-0.9,4.4-1.5,8.1-1.5,10.2c0,1.9,0.7,3,2.5,3c1.2,0,2.1-0.5,2.7-1.3c0.8-0.9,1.3-2.1,1.6-3.6h5.2c-0.7,3.5-1.8,5.7-3.8,7.5
					c-1.5,1.3-3.3,2-6.2,2c-3,0-4.9-1-6-2.8c-0.9-1.4-1.2-2.7-1.2-4.8C576.6,259.7,577.1,256.4,578.1,251.6z"/>
				<path d="M602.9,236.2c1.7-1.7,3.7-2.4,6.4-2.4c3.1,0,5,1.1,6.1,2.9c0.9,1.4,1.2,2.6,1.2,4.6c0,2.1-0.5,5.5-1.5,10.3
					c-2.1,10.6-3.1,13.2-5.4,15.4c-1.7,1.7-3.6,2.4-6.4,2.4c-3.2,0-5.1-1.1-6.2-2.9c-0.8-1.4-1.1-2.6-1.1-4.6
					c0-2.1,0.5-5.5,1.5-10.3C599.7,241,600.7,238.4,602.9,236.2z M611.5,241.5c0-1.8-0.6-3-2.6-3c-1,0-1.8,0.3-2.4,1
					c-1.3,1.3-2,3.6-3.7,12.1c-0.9,4.4-1.5,8.1-1.5,10.1c0,1.8,0.6,3,2.6,3c1,0,1.8-0.3,2.4-1c1.3-1.3,2-3.6,3.7-12.1
					C610.8,247.2,611.5,243.6,611.5,241.5z"/>
				<path d="M622,234.2h5.2l-6,30.1h8.7L629,269h-13.9L622,234.2z"/>
				<path d="M638.5,234.2h5.2l-6.9,34.8h-5.2L638.5,234.2z"/>
			</g>
		</g>
		<g>
			<g>
				<path d="M389,181.9c1,0,1.8-0.8,1.8-1.8v-2.3c0-4.5,3.2-8.4,7.7-9.2c0.4-0.1,1.3-0.1,1.7-0.1c1,0,1.8-0.9,1.7-1.9
					c0-1-0.9-1.8-1.9-1.7c-0.1,0-1.5,0.1-2.2,0.2c-6.2,1.1-10.7,6.5-10.7,12.8v2.3C387.1,181.1,388,181.9,389,181.9z"/>
				<path d="M385.6,184.2c0.1,0,0.1,0,0.2,0C385.7,184.2,385.6,184.2,385.6,184.2z"/>
				<path d="M385.1,184.4c0.1-0.1,0.3-0.1,0.4-0.2C385.4,184.3,385.2,184.3,385.1,184.4z"/>
				<rect x="403.4" y="184.2" width="16.1" height="3.7"/>
				<path d="M425.7,187.8h13.9c1,0,1.8-0.8,1.8-1.8s-0.8-1.8-1.8-1.8h-13.9V187.8z"/>
				<path d="M387,184.5c0.6,0.4,0.9,1,0.9,1.7l-0.1,1.7h9.5v-3.7H386c-0.1,0-0.1,0-0.2,0C386.2,184.1,386.6,184.2,387,184.5z"/>
				<g>
					<path d="M387,184.5c-0.4-0.2-0.8-0.3-1.2-0.3c0,0,0,0,0,0c-0.1,0-0.1,0-0.2,0c0,0,0,0,0,0c-0.1,0-0.3,0.1-0.4,0.2c0,0,0,0,0,0
						l-3.4,2l-2.9-2c-0.5-0.4-1.2-0.4-1.7-0.2c-0.6,0.2-1,0.8-1.1,1.4l-7.1,39.6h1.2h2.5l6.5-36.1l1.5,1c0.6,0.4,1.4,0.4,2,0.1
						l1.3-0.8l-3,35.8h3.7l3.1-37.4l0.1-1.7C387.9,185.5,387.6,184.8,387,184.5z"/>
				</g>
				<polygon points="390.2,214.3 390.2,218 415.8,218 416.3,214.3 				"/>
				<path d="M399.8,188.1v1.4c0,1,0.8,1.8,1.8,1.8c1,0,1.8-0.8,1.8-1.8v-1.4v-0.3v-3.7v-4.4c0-5.1,4.2-9.3,9.3-9.3
					c5.1,0,9.3,4.2,9.3,9.3v0.6v7.8v1.4c0,1,0.8,1.8,1.8,1.8c1,0,1.8-0.8,1.8-1.8v-1.4v-0.3v-3.7v-4.4c0-7.2-5.8-13-13-13
					s-13,5.8-13,13v0.6L399.8,188.1L399.8,188.1z"/>
				<path d="M408.7,275.7l-10.9,0v1.8c0,0.5-0.2,1-0.5,1.3c-0.3,0.3-0.8,0.5-1.3,0.5l0,0l-8.2,0c-1,0-1.8-0.8-1.8-1.8v-1.8l-22.6,0
					l0-17.1h-1.8l0-3.7h1.8l0-4.8h-1.8l0-3.7h1.8l0-17.4l22.6,0v-1.8c0-0.5,0.2-1,0.5-1.3c0.3-0.3,0.8-0.5,1.3-0.5l0,0l8.2,0
					c1,0,1.8,0.8,1.8,1.8v1.8l16.6,0l0.5-3.7l-44.8-0.1h-1.2l-7.3,0l0,0c-0.5,0-0.9,0.2-1.3,0.5s-0.5,0.8-0.5,1.3l-0.1,50.3
					c0,1,0.8,1.8,1.8,1.8l46.8,0.1L408.7,275.7z"/>
				<path d="M395.6,258.5l0-3.7h2.2l0-4.8h-2.2l0-3.7h2.2l0-17.4v-1.8c0-1-0.8-1.8-1.8-1.8l-8.2,0l0,0c-0.5,0-0.9,0.2-1.3,0.5
					c-0.3,0.3-0.5,0.8-0.5,1.3v1.8l-0.1,46.7v1.8c0,1,0.8,1.8,1.8,1.8l8.2,0l0,0c0.5,0,0.9-0.2,1.3-0.5c0.3-0.3,0.5-0.8,0.5-1.3
					v-1.8l0-17.1L395.6,258.5z M389.5,275.6l0.1-46.7l4.6,0l-0.1,46.7L389.5,275.6z"/>
				<polygon points="382.7,246.4 363.3,246.3 361.5,246.3 361.5,250 363.3,250 382.7,250.1 				"/>
				<polygon points="382.6,254.8 363.3,254.8 361.5,254.8 361.5,258.4 363.3,258.4 382.6,258.5 				"/>
				<polygon points="395.6,246.4 395.6,250.1 397.8,250.1 411.8,250.1 412.3,246.4 397.8,246.4 				"/>
				<polygon points="395.6,254.8 395.6,258.5 397.8,258.5 410.8,258.5 411.3,254.9 397.8,254.8 				"/>
				<path d="M434.5,209.8V207c0-5.8,4.1-10.9,9.8-12c1-0.2,1.6-1.2,1.4-2.2c-0.2-1-1.2-1.6-2.2-1.4c-7.4,1.5-12.7,8.1-12.7,15.6v2.9
					c0,0,0,0,0,0c0,0.8,0.7,1.5,1.6,1.5h0.5C433.8,211.4,434.5,210.7,434.5,209.8C434.5,209.8,434.5,209.8,434.5,209.8z"/>
				<path d="M490.9,277.4l-5.4-62.6c-0.1-0.9-0.9-1.7-1.8-1.7H477H475v3.7h7l3.7,42.9h1.2v3.7H486l1.1,12.4H432l3-59h4.4v-3.7h-6.1
					c0,0,0,0,0,0c-0.4,0-0.7,0.1-1.1,0.3l-4.3,3.1l-1.5-1.4l0,0l-1.6-1.5c-0.5-0.5-1.2-0.6-1.9-0.4c-0.6,0.2-1.1,0.8-1.2,1.5
					l-8.3,62.6c-0.1,0.5,0.1,1.1,0.4,1.4c0.4,0.4,0.9,0.6,1.4,0.6h7.1l0,0h0.8h0.8h57.9h7.4c0.5,0,1-0.2,1.4-0.6
					C490.8,278.4,491,277.9,490.9,277.4z M417.2,275.7l7.6-57.1l1.7,1.6c0.6,0.6,1.6,0.6,2.3,0.1l2.5-1.7l-2.9,57.1H417.2z"/>
				<rect x="446.7" y="213.1" width="20.9" height="3.7"/>
				<polygon points="437.2,259.6 437.2,263.3 486,263.3 486.9,263.3 486.9,259.6 485.7,259.6 				"/>
				<path d="M468,222.7c0,2.8,2.3,5.1,5.1,5.1c2.8,0,5.1-2.3,5.1-5.1c0-2.2-1.4-4.1-3.3-4.8v1.5c0,1-0.8,1.8-1.8,1.8
					c0.8,0,1.5,0.7,1.5,1.5c0,0.8-0.7,1.5-1.5,1.5s-1.5-0.7-1.5-1.5c0-0.8,0.7-1.5,1.5-1.5c-1,0-1.8-0.8-1.8-1.8v-1.5
					c-0.4,0.1-0.7,0.3-1,0.5C468.9,219.4,468,220.9,468,222.7z"/>
				<path d="M439.8,222.7c0,2.8,2.3,5.1,5.1,5.1c2.8,0,5.1-2.3,5.1-5.1c0-2.2-1.4-4.1-3.3-4.8v1.5c0,1-0.8,1.8-1.8,1.8
					c0.8,0,1.5,0.7,1.5,1.5c0,0.8-0.7,1.5-1.5,1.5s-1.5-0.7-1.5-1.5c0-0.8,0.7-1.5,1.5-1.5c-1,0-1.8-0.8-1.8-1.8v-1.5
					c-0.4,0.1-0.7,0.3-1,0.5C440.7,219.4,439.8,220.9,439.8,222.7z"/>
				<path d="M443.1,217.9v1.5c0,1,0.8,1.8,1.8,1.8s1.8-0.8,1.8-1.8v-1.5v-1.2v-3.7v-1.7V207c0-6.8,5.5-12.3,12.3-12.3
					c6.8,0,12.3,5.5,12.3,12.3v0.8v10.2v1.5c0,1,0.8,1.8,1.8,1.8c1,0,1.8-0.8,1.8-1.8v-1.5v-1.2v-3.7v-1.7V207c0-8.8-7.2-16-15.9-16
					c-8.8,0-16,7.2-16,16v0.8L443.1,217.9L443.1,217.9z"/>
				<path d="M403.4,188.1v1.4c0,0.6-0.3,1.2-0.8,1.5c0.3,0.3,0.5,0.6,0.5,1.1c0,0.8-0.7,1.5-1.5,1.5c-0.8,0-1.5-0.7-1.5-1.5
					c0-0.4,0.2-0.8,0.5-1.1c-0.5-0.3-0.8-0.9-0.8-1.5v-1.4c-0.4,0.2-0.7,0.4-1,0.7c-1,0.8-1.6,2-1.6,3.4c0,2.4,2,4.4,4.4,4.4
					c2.4,0,4.4-2,4.4-4.4C406,190.4,405,188.8,403.4,188.1z"/>
				<path d="M425.7,188.1v1.4c0,0.6-0.3,1.2-0.8,1.5c0.3,0.3,0.5,0.6,0.5,1.1c0,0.8-0.7,1.5-1.5,1.5c-0.8,0-1.5-0.7-1.5-1.5
					c0-0.4,0.2-0.8,0.5-1.1c-0.5-0.3-0.8-0.9-0.8-1.5v-1.4c-0.4,0.2-0.7,0.4-1,0.7c-1,0.8-1.6,2-1.6,3.4c0,2.4,2,4.4,4.4,4.4
					c2.4,0,4.4-2,4.4-4.4C428.3,190.4,427.3,188.8,425.7,188.1z"/>
			</g>
		</g>
	</g>
	<g>
		<path class="st2" d="M1112.4,158.3c-1.2-1.3-2.8-2.2-4.5-2.5c0-0.1-1.6-0.1-1.6-0.1H888.2H823c-4.2,0-7.3,2-7.7,6l-10.2,118.5
			c-0.2,2.2,0.5,4.3,2,6c1.2,1.3,2.8,2.2,4.5,2.5c0,0.1,1.6,0.1,1.6,0.1h283.3c4.2,0,7.3-2,7.7-6l10.2-118.5
			C1114.6,162.1,1114,160,1112.4,158.3z"/>
		<g>
			<path d="M941.6,197.9c1.4-1.5,3.2-2.4,6-2.4c2.6,0,4.4,0.9,5.3,2.6c0.6,1,0.8,2.1,0.8,3.5c0,0.5,0,1-0.1,1.8h-4.8
				c0.1-0.6,0.1-1,0.1-1.4c0-0.7-0.1-1.1-0.5-1.6c-0.3-0.3-0.7-0.5-1.4-0.5c-0.8,0-1.5,0.3-2.1,1.1c-0.9,1.2-1.4,3.6-2.3,7.8
				c-0.6,2.9-1.1,5.6-1.1,6.7c0,0.8,0.2,1.4,0.6,1.8c0.3,0.3,0.8,0.4,1.3,0.4c0.6,0,1.3-0.2,1.8-0.7c0.7-0.6,1-1.5,1.4-2.8h4.8
				c-0.6,2.7-1.4,4.2-2.5,5.5c-1.4,1.5-3.2,2.4-6.1,2.4c-2.5,0-4.2-0.8-5.2-2.4c-0.6-1-1-2.2-1-3.9c0-1.5,0.4-3.7,1-6.9
				C939.1,202.4,940,199.8,941.6,197.9z"/>
			<path d="M958.2,197.9c1.3-1.5,3.1-2.4,6-2.4c2.6,0,4.4,0.9,5.3,2.6c0.6,1,0.8,2.1,0.8,3.7c0,1.5-0.3,3.7-1,6.9
				c-1.4,6.7-2.2,9-3.9,10.9c-1.3,1.5-3.1,2.4-6,2.4c-2.6,0-4.4-0.9-5.4-2.6c-0.5-1-0.8-2.1-0.8-3.8c0-1.5,0.3-3.7,1-6.9
				C955.7,202.1,956.5,199.8,958.2,197.9z M965.5,202.1c0-0.7-0.1-1.3-0.4-1.7c-0.3-0.3-0.7-0.6-1.4-0.6c-0.8,0-1.5,0.3-2.1,1
				c-0.9,1.2-1.5,3.8-2.3,7.9c-0.6,2.9-1,5.6-1,6.7c0,0.7,0.1,1.3,0.4,1.7c0.3,0.3,0.7,0.6,1.4,0.6c0.8,0,1.5-0.3,2.1-1
				c0.9-1.2,1.5-3.8,2.3-7.9C965,205.9,965.5,203.2,965.5,202.1z"/>
			<path d="M974.7,195.9h4.7l-0.4,1.9c0.6-0.6,1.2-1.2,1.9-1.6c0.6-0.3,1.5-0.6,2.5-0.6c2.4,0,3.4,1,4.1,2.1
				c0.5,0.9,0.7,1.8,0.7,3.1c0,0.6-0.1,1.4-0.4,2.7l-3.6,18.3h-4.9l3.6-18.2c0.1-0.7,0.2-1.2,0.2-1.6c0-1.1-0.7-2-2-2
				c-1.3,0-2.6,0.8-3.1,3.6l-3.6,18.2h-4.9L974.7,195.9z"/>
			<path d="M1000.3,197.9c1.3-1.5,3.1-2.4,6-2.4c2.6,0,4.4,0.9,5.3,2.6c0.6,1,0.8,2.1,0.8,3.7c0,1.5-0.3,3.7-1,6.9
				c-1.4,6.7-2.2,9-3.9,10.9c-1.3,1.5-3.1,2.4-6,2.4c-2.6,0-4.4-0.9-5.4-2.6c-0.5-1-0.8-2.1-0.8-3.8c0-1.5,0.3-3.7,1-6.9
				C997.8,202.1,998.7,199.8,1000.3,197.9z M1007.6,202.1c0-0.7-0.1-1.3-0.4-1.7c-0.3-0.3-0.7-0.6-1.4-0.6c-0.8,0-1.5,0.3-2.1,1
				c-0.9,1.2-1.5,3.8-2.3,7.9c-0.6,2.9-1,5.6-1,6.7c0,0.7,0.1,1.3,0.4,1.7c0.3,0.3,0.7,0.6,1.4,0.6c0.8,0,1.5-0.3,2.1-1
				c0.9-1.2,1.5-3.8,2.3-7.9C1007.2,205.9,1007.6,203.2,1007.6,202.1z"/>
			<path d="M1016.8,195.9h4.7l-0.5,2.7c0.6-0.9,1.4-1.6,2.4-2.2c1.2-0.7,2.6-0.9,4.2-0.9l-1,4.7h-1.7c-2.3,0-4.4,1.8-5,4.7
				l-3.3,16.7h-4.9L1016.8,195.9z"/>
			<path d="M1029.6,197.5c1.2-1.2,2.5-2,4.7-2c1.1,0,2,0.4,2.4,0.7c0.5,0.4,0.9,0.8,1.2,1.3l2.1-10.7h4.9l-6.9,34.8h-4.7l0.3-1.9
				c-0.4,0.5-1.2,1.3-1.8,1.6c-0.7,0.4-1.7,0.7-2.5,0.7c-1.7,0-3.1-0.5-4-2c-0.5-1-0.8-2-0.8-3.4c0-2,0.4-4.5,1.1-7.9
				C1027.3,201.2,1028.2,198.9,1029.6,197.5z M1029.7,215.4c0,0.8,0.1,1.3,0.4,1.7c0.3,0.4,0.8,0.6,1.4,0.6s1.4-0.3,1.8-0.7
				c0.5-0.5,1-1.4,1.3-2.7l2.2-11.1c0.1-0.5,0.1-1,0.1-1.3c0-0.6-0.2-1.2-0.5-1.6c-0.2-0.3-0.8-0.5-1.4-0.5c-0.7,0-1.3,0.2-1.9,0.8
				c-1,1-1.8,4.1-2.5,8.1C1030,212.3,1029.7,214.2,1029.7,215.4z"/>
			<path d="M1046.6,196.6h4.9l-5,25h-4.9L1046.6,196.6z M1048.4,187.3h5.1l-1.1,5.3h-5.1L1048.4,187.3z"/>
			<path d="M1055.2,195.9h4.7l-0.4,1.9c0.6-0.6,1.2-1.2,1.9-1.6c0.6-0.3,1.5-0.6,2.5-0.6c2.4,0,3.4,1,4.1,2.1
				c0.5,0.9,0.7,1.8,0.7,3.1c0,0.6-0.1,1.4-0.4,2.7l-3.6,18.3h-4.9l3.6-18.2c0.1-0.7,0.2-1.2,0.2-1.6c0-1.1-0.7-2-2-2
				s-2.6,0.8-3.1,3.6l-3.6,18.2h-4.9L1055.2,195.9z"/>
			<path d="M1069,215.7c0-1.5,0.3-3.7,1-6.9c1.3-6.4,2.2-9,3.8-10.8c1.4-1.6,3.2-2.4,6.1-2.4c2.6,0,4.2,1,5,2.2c0.6,0.9,1,2.3,1,4
				c0,2.2-0.5,5-1.2,8.5h-10.1c-0.5,2.4-0.8,4.3-0.8,5.3c0,0.6,0.1,1.2,0.5,1.7c0.3,0.3,0.7,0.5,1.4,0.5c0.6,0,1.3-0.2,1.8-0.7
				c0.6-0.6,1-1.4,1.4-2.8h4.9c-0.6,2.7-1.4,4.2-2.6,5.5c-1.4,1.5-3.2,2.3-6,2.3c-2.6,0-4.4-0.9-5.4-2.7
				C1069.2,218.3,1069,217.2,1069,215.7z M1080.5,206.5c0.4-2,0.6-3.5,0.6-4.4c0-1.4-0.5-2.2-1.9-2.2c-0.8,0-1.5,0.3-2.1,1
				c-0.8,1-1.3,2.6-1.9,5.6H1080.5z"/>
			<path d="M936.1,263.4c0-0.5,0.1-1.1,0.2-1.9h4.8c-0.1,0.4-0.1,0.7-0.1,1.1c0,0.6,0.1,1.2,0.5,1.6c0.3,0.4,1,0.7,1.9,0.7
				c0.8,0,1.6-0.3,2.1-0.9c0.7-0.8,1-1.8,1-2.8c0-1.2-0.4-2.1-2.1-3.1L942,257c-2.5-1.3-3.4-3.2-3.4-5.5c0-2.4,0.8-5,2.8-6.8
				c1.4-1.3,3.2-1.9,5.5-1.9c2.5,0,4.2,0.8,5.3,2.1c0.7,1,1.2,2.1,1.2,3.6c0,0.6-0.1,1.2-0.2,1.9h-4.6c0.1-0.4,0.1-0.8,0.1-1.2
				c0-0.6-0.2-1.1-0.5-1.5c-0.4-0.4-0.9-0.6-1.7-0.6c-0.7,0-1.5,0.3-1.9,0.7c-0.7,0.7-1,1.6-1,2.7c0,1.1,0.5,1.9,1.8,2.5l2.3,1.3
				c2.7,1.5,3.8,3.6,3.8,6.1c0,3-1.3,5.5-2.8,6.9s-3.4,2-5.7,2c-2.5,0-4.1-0.6-5.4-2C936.6,266.4,936.1,264.9,936.1,263.4z"/>
			<path d="M958,245.3c1.3-1.5,3.1-2.4,6-2.4c2.6,0,4.4,0.9,5.3,2.6c0.6,1,0.8,2.1,0.8,3.7c0,1.5-0.3,3.7-1,6.9
				c-1.4,6.7-2.2,9-3.9,10.9c-1.3,1.5-3.1,2.4-6,2.4c-2.6,0-4.4-0.9-5.4-2.6c-0.5-1-0.8-2.1-0.8-3.8c0-1.5,0.3-3.7,1-6.9
				C955.5,249.4,956.3,247.1,958,245.3z M965.3,249.5c0-0.7-0.1-1.3-0.4-1.7c-0.3-0.3-0.7-0.6-1.4-0.6c-0.8,0-1.5,0.3-2.1,1
				c-0.9,1.2-1.5,3.8-2.3,7.9c-0.6,2.9-1,5.6-1,6.7c0,0.7,0.1,1.3,0.4,1.7c0.3,0.3,0.7,0.6,1.4,0.6c0.8,0,1.5-0.3,2.1-1
				c0.9-1.2,1.5-3.8,2.3-7.9C964.8,253.2,965.3,250.6,965.3,249.5z"/>
			<path d="M982.9,267.4c-1.2,1.2-2.5,2-4.7,2c-1.2,0-2.1-0.4-2.5-0.7c-0.5-0.4-0.9-0.8-1.2-1.3l-2.1,10.7h-4.9l6.9-34.8h4.7
				l-0.3,1.9c0.4-0.5,1.2-1.3,1.8-1.6c0.7-0.4,1.7-0.7,2.5-0.7c1.7,0,3.1,0.5,4,2c0.6,1,0.8,2,0.8,3.4c0,2-0.4,4.5-1.1,7.9
				C985.2,263.8,984.4,266,982.9,267.4z M982.9,249.5c0-0.8-0.1-1.3-0.5-1.7c-0.4-0.5-0.8-0.6-1.4-0.6c-0.7,0-1.3,0.2-1.8,0.7
				c-0.6,0.6-1.1,1.4-1.3,2.7l-2.2,11.1c-0.1,0.5-0.1,1-0.1,1.3c0,0.6,0.1,1.1,0.5,1.6c0.3,0.3,0.8,0.5,1.4,0.5
				c0.7,0,1.3-0.2,1.9-0.8c1-1,1.8-4.1,2.5-8.1C982.6,252.6,982.9,250.7,982.9,249.5z"/>
			<path d="M992.1,243.3h4.7l-0.5,2.7c0.6-0.9,1.4-1.6,2.4-2.2c1.2-0.7,2.6-0.9,4.2-0.9l-1,4.7h-1.7c-2.3,0-4.4,1.8-5,4.7l-3.3,16.7
				H987L992.1,243.3z"/>
			<path d="M999.2,263.8c0-0.8,0.1-1.5,0.3-2.5c0.4-2.2,1.7-4.4,3.3-5.7c1.5-1.2,3-1.6,5.8-1.6h2.4l0.6-3.3c0.1-0.6,0.2-1.1,0.2-1.4
				c0-1.2-0.6-2-1.9-2c-0.7,0-1.3,0.2-1.8,0.7c-0.6,0.6-1,1.5-1.2,2.6h-4.9c0.4-2.1,1.2-4.2,3-5.8c1.3-1.2,3.2-1.8,5.4-1.8
				c2.3,0,4.1,0.6,5.1,2c0.8,1,1.1,2.1,1.1,3.9c0,0.8-0.1,1.8-0.3,2.5l-3.5,17.8h-4.6l0.4-2.1c-0.5,0.6-1.1,1.3-1.8,1.7
				c-0.9,0.6-1.7,0.8-2.8,0.8c-1.9,0-3.2-0.6-4.1-2.2C999.5,266.4,999.2,265.2,999.2,263.8z M1006.3,265c1.7,0,2.8-1.6,3.2-3.6
				l0.8-4h-1.6c-1.5,0-2.1,0.2-2.8,0.8c-1,0.9-1.7,2.8-1.7,4.4C1004.2,264.2,1004.9,265,1006.3,265z"/>
			<path d="M1024.8,258.5c0.6-3.3,1.8-6.4,2.8-8.2l8.9-16h5.3l-8.2,14c0.5-0.4,1.4-0.5,2-0.5c3.2,0,4.7,2.5,4.7,5.3
				c0,1.2-0.2,2.9-0.7,5.4c-1,5.1-1.7,6.8-3.1,8.3c-1.6,1.7-3.4,2.6-6.2,2.6c-2.3,0-3.9-0.8-4.9-2.1c-0.9-1.2-1.3-2.5-1.3-4.1
				C1024.2,262.1,1024.4,260.6,1024.8,258.5z M1030.9,265c0.7,0,1.4-0.3,2-0.9c0.9-1,1.3-2.5,2-5.8c0.3-1.8,0.6-3.2,0.6-4.3
				c0-1.2-0.5-2.1-1.9-2.1c-0.7,0-1.4,0.3-2,0.9c-0.9,1-1.4,3.2-1.9,5.6c-0.4,1.9-0.6,3.5-0.6,4.4
				C1029.1,264.1,1029.6,265,1030.9,265z"/>
			<path d="M1048.6,235.7c1.5-1.2,3.2-1.8,5.5-1.8c2.3,0,4,0.7,4.9,1.8c1.2,1.3,1.5,2.5,1.5,4.1c0,0.7-0.1,1.5-0.3,2.4l-3.9,19.4
				c-0.5,2.6-1.4,4.6-3,6c-1.4,1.2-3.2,1.8-5.4,1.8c-2.5,0-4.1-0.8-4.9-1.8c-1.1-1.1-1.5-2.5-1.5-4.1c0-0.7,0.1-1.5,0.3-2.4
				l3.9-19.4C1046.1,239,1047,237.1,1048.6,235.7z M1046.5,261.5c-0.1,0.5-0.1,1.1-0.1,1.5c0,1.3,0.8,2.1,2,2.1c1.2,0,2.5-0.8,3-3.3
				l4-20.1c0.1-0.5,0.1-1.1,0.1-1.5c0-1.3-0.8-2.1-2-2.1c-1.2,0-2.5,0.8-3,3.3L1046.5,261.5z"/>
			<path d="M1069,245.9h2.5c1.4-5.9,2.4-7.9,4.2-9.6c1.7-1.7,3.6-2.4,6.4-2.4c2.5,0,4.5,0.8,5.8,2.3c0.9,1.2,1.5,3.1,1.5,4.9
				c0,0.7,0,1.4-0.1,2.2h-5.2c0.1-0.7,0.1-1.3,0.1-2c0-1.6-0.5-2.8-2.4-2.8c-1.1,0-1.9,0.3-2.5,1c-1,1-1.6,2.4-2.5,6.4h5.1l-0.7,3.7
				h-5.2l-0.8,4h5.1l-0.7,3.7h-5c-0.3,1.9-0.4,3.4-0.4,4.4c0,1.9,0.7,3,2.5,3c1.2,0,2.1-0.5,2.7-1.3c0.8-0.9,1.3-2.1,1.6-3.6h5.2
				c-0.7,3.5-1.8,5.7-3.8,7.5c-1.5,1.3-3.3,2-6.2,2c-3,0-4.9-1-6-2.8c-0.9-1.4-1.2-2.7-1.2-4.8c0-1.1,0.1-2.6,0.4-4.5h-2.6l0.8-3.7
				h2.5l0.8-4h-2.5L1069,245.9z"/>
		</g>
		<g>
			<g>
				<g>
					<path d="M908.2,279.4h-69.9c-5.7,0-10.4-4.7-10.4-10.4v-89.4c0-0.7,0.4-1.4,1.1-1.8c0.7-0.4,1.5-0.3,2.1,0.1l10.5,7.1l10.6-7.1
						c0.7-0.5,1.6-0.5,2.2,0l10.5,7.1l10.6-7.1c0.7-0.5,1.6-0.5,2.2,0l10.6,7.1l10.6-7.1c0.6-0.4,1.4-0.5,2.1-0.1
						c0.7,0.4,1.1,1,1.1,1.8v45.6h14c1.1,0,2,0.9,2,2v42.2c0,5.4-4.3,9.9-9.7,10C908.3,279.4,908.2,279.4,908.2,279.4z M902,229.2
						v40.2c0,3.3,2.7,6,6,6c3.3,0,6-2.7,6-6v-40.2H902z M832,183.3V269c0,3.5,2.8,6.4,6.3,6.4H900c-1.2-1.7-2-3.7-2-6v-86l-8.5,5.7
						c-0.7,0.5-1.6,0.5-2.2,0l-10.6-7.1l-10.6,7.1c-0.7,0.5-1.6,0.5-2.2,0l-10.5-7.1l-10.6,7.1c-0.7,0.5-1.6,0.5-2.2,0L832,183.3z"
						/>
				</g>
			</g>
			<g>
				<g>
					<path d="M866.8,250.7h-4.2c-6,0-10.8-4.9-10.8-10.8c0-1.1,0.9-2,2-2c1.1,0,2,0.9,2,2c0,3.7,3,6.8,6.8,6.8h4.2
						c3.7,0,6.8-3,6.8-6.8s-3-6.8-6.8-6.8h-4.2c-6,0-10.8-4.9-10.8-10.8s4.9-10.8,10.8-10.8h4.2c6,0,10.8,4.9,10.8,10.8
						c0,1.1-0.9,2-2,2s-2-0.9-2-2c0-3.7-3-6.8-6.8-6.8h-4.2c-3.7,0-6.8,3-6.8,6.8c0,3.7,3,6.8,6.8,6.8h4.2c6,0,10.8,4.9,10.8,10.8
						C877.6,245.8,872.7,250.7,866.8,250.7z"/>
				</g>
				<g>
					<path d="M864.7,254.8c-1.1,0-2-0.9-2-2v-4.1c0-1.1,0.9-2,2-2s2,0.9,2,2v4.1C866.7,253.9,865.8,254.8,864.7,254.8z"/>
				</g>
				<g>
					<path d="M864.7,215.5c-1.1,0-2-0.9-2-2v-4.1c0-1.1,0.9-2,2-2s2,0.9,2,2v4.1C866.7,214.6,865.8,215.5,864.7,215.5z"/>
				</g>
			</g>
		</g>
	</g>
	<g>
		<g>
			<path d="M707.6,220.6c0.9-1.1,2.2-1.7,4.2-1.7c1.9,0,3.1,0.6,3.7,1.9c0.4,0.7,0.6,1.5,0.6,2.6c0,1.1-0.2,2.6-0.7,4.8
				c-1,4.7-1.6,6.3-2.7,7.7c-0.9,1.1-2.2,1.7-4.2,1.7c-1.9,0-3.1-0.6-3.8-1.9c-0.4-0.7-0.5-1.5-0.5-2.6c0-1,0.2-2.6,0.7-4.8
				C705.9,223.5,706.4,221.9,707.6,220.6z M712.7,223.5c0-0.5-0.1-0.9-0.3-1.2c-0.2-0.2-0.5-0.4-1-0.4c-0.6,0-1.1,0.2-1.4,0.7
				c-0.6,0.9-1.1,2.6-1.6,5.5c-0.4,2-0.7,3.9-0.7,4.7c0,0.5,0.1,0.9,0.3,1.2c0.2,0.2,0.5,0.4,1,0.4c0.6,0,1.1-0.2,1.4-0.7
				c0.6-0.9,1.1-2.7,1.6-5.6C712.4,226.2,712.7,224.3,712.7,223.5z"/>
			<path d="M726,236.2c-0.9,0.8-1.8,1.4-3.3,1.4c-0.8,0-1.4-0.3-1.7-0.5c-0.3-0.3-0.6-0.6-0.8-0.9l-1.5,7.5h-3.4l4.9-24.4h3.3
				l-0.2,1.3c0.3-0.4,0.9-0.9,1.2-1.1c0.5-0.3,1.2-0.5,1.8-0.5c1.2,0,2.2,0.3,2.8,1.4c0.4,0.7,0.6,1.4,0.6,2.4
				c0,1.4-0.3,3.2-0.8,5.5C727.6,233.6,727,235.2,726,236.2z M726,223.6c0-0.5-0.1-0.9-0.3-1.2c-0.3-0.3-0.5-0.4-1-0.4
				c-0.5,0-0.9,0.2-1.3,0.5c-0.4,0.4-0.8,1-0.9,1.9l-1.5,7.8c-0.1,0.4-0.1,0.7-0.1,0.9c0,0.4,0.1,0.8,0.4,1.1c0.2,0.2,0.6,0.3,1,0.3
				c0.5,0,0.9-0.2,1.3-0.6c0.7-0.7,1.2-2.9,1.8-5.7C725.8,225.8,726,224.4,726,223.6z"/>
			<path d="M739.2,236.2c-0.9,0.8-1.8,1.4-3.3,1.4c-0.8,0-1.4-0.3-1.7-0.5c-0.3-0.3-0.6-0.6-0.8-0.9l-1.5,7.5h-3.4l4.9-24.4h3.3
				l-0.2,1.3c0.3-0.4,0.9-0.9,1.2-1.1c0.5-0.3,1.2-0.5,1.8-0.5c1.2,0,2.2,0.3,2.8,1.4c0.4,0.7,0.6,1.4,0.6,2.4
				c0,1.4-0.3,3.2-0.8,5.5C740.8,233.6,740.2,235.2,739.2,236.2z M739.2,223.6c0-0.5-0.1-0.9-0.3-1.2c-0.3-0.3-0.5-0.4-1-0.4
				c-0.5,0-0.9,0.2-1.3,0.5c-0.4,0.4-0.8,1-0.9,1.9l-1.5,7.8c-0.1,0.4-0.1,0.7-0.1,0.9c0,0.4,0.1,0.8,0.4,1.1c0.2,0.2,0.6,0.3,1,0.3
				c0.5,0,0.9-0.2,1.3-0.6c0.7-0.7,1.2-2.9,1.8-5.7C739,225.8,739.2,224.4,739.2,223.6z"/>
			<path d="M753.1,237.3h-3.3l0.3-1.3c-0.4,0.4-0.9,0.9-1.3,1.1c-0.4,0.2-1.1,0.4-1.8,0.4c-1.7,0-2.4-0.7-2.9-1.4
				c-0.4-0.6-0.5-1.2-0.5-2.2c0-0.4,0.1-1,0.3-1.9l2.5-12.8h3.4l-2.5,12.8c-0.1,0.5-0.1,0.9-0.1,1.1c0,0.8,0.5,1.4,1.4,1.4
				c0.9,0,1.8-0.6,2.2-2.5l2.5-12.8h3.4L753.1,237.3z"/>
			<path d="M760,219.2h3.3l-0.4,1.9c0.4-0.6,1-1.1,1.7-1.5c0.9-0.5,1.8-0.6,2.9-0.6l-0.7,3.3h-1.2c-1.6,0-3.1,1.2-3.5,3.3l-2.3,11.7
				h-3.4L760,219.2z"/>
			<path d="M766.5,233.1c0-1.1,0.2-2.6,0.7-4.9c0.9-4.5,1.5-6.3,2.7-7.6c1-1.1,2.2-1.7,4.3-1.7c1.8,0,2.9,0.7,3.5,1.5
				c0.4,0.6,0.7,1.6,0.7,2.8c0,1.6-0.3,3.5-0.8,6h-7.1c-0.3,1.7-0.6,3-0.6,3.7c0,0.4,0.1,0.9,0.4,1.2c0.2,0.2,0.5,0.4,1,0.4
				s0.9-0.1,1.3-0.5c0.4-0.4,0.7-1,1-2h3.4c-0.4,1.9-1,2.9-1.8,3.9c-1,1.1-2.3,1.6-4.2,1.6c-1.8,0-3.1-0.6-3.8-1.9
				C766.6,234.9,766.5,234.1,766.5,233.1z M774.6,226.6c0.3-1.4,0.4-2.4,0.4-3.1c0-1-0.4-1.6-1.3-1.6c-0.6,0-1.1,0.2-1.4,0.7
				c-0.6,0.7-0.9,1.9-1.3,3.9H774.6z"/>
		</g>
	</g>
	<g>
		<g>
			<path class="st2" d="M343.1,330.9l-4.6,1.6l-1-2.3l4.8-1.4l-3.9-3l1.8-1.8l3.5,3.1l0.8-4.5l2.6,0.4l-1.1,4.4l4.6-1.6l1,2.3
				l-4.8,1.4l3.9,3l-1.8,1.8l-3.5-3.1l-0.8,4.4l-2.6-0.4L343.1,330.9z"/>
			<path class="st2" d="M350.9,343.9c0-1.1,0.3-2.7,0.8-5.1c1.1-4.7,1.8-6.6,3.1-8c1.1-1.2,2.6-1.8,5-1.8c2.1,0,3.4,0.7,4.1,1.6
				c0.5,0.7,0.8,1.7,0.8,3c0,1.7-0.4,3.7-1,6.3h-8.3c-0.4,1.8-0.6,3.2-0.6,3.9c0,0.5,0.1,0.9,0.4,1.2c0.2,0.3,0.6,0.4,1.1,0.4
				s1.1-0.1,1.5-0.5c0.5-0.4,0.8-1,1.1-2.1h4c-0.5,2-1.1,3.1-2.1,4.1c-1.1,1.1-2.6,1.7-4.9,1.7c-2.1,0-3.6-0.7-4.4-2
				C351.1,345.9,350.9,345,350.9,343.9z M360.4,337.1c0.4-1.5,0.5-2.6,0.5-3.2c0-1-0.4-1.7-1.6-1.7c-0.7,0-1.2,0.3-1.7,0.8
				c-0.6,0.7-1,1.9-1.6,4.2L360.4,337.1L360.4,337.1z"/>
			<path class="st2" d="M365.3,344.2c0-0.4,0-0.8,0.2-1.4h4c-0.1,0.3-0.1,0.5-0.1,0.8c0,0.5,0.1,0.9,0.4,1.2
				c0.3,0.3,0.8,0.5,1.5,0.5c0.7,0,1.3-0.2,1.7-0.7c0.6-0.6,0.8-1.3,0.8-2.1c0-0.9-0.4-1.6-1.7-2.3l-1.9-0.9c-2-1-2.8-2.4-2.8-4
				c0-1.8,0.7-3.7,2.3-5c1.1-0.9,2.6-1.4,4.5-1.4c2,0,3.5,0.6,4.3,1.6c0.6,0.7,1,1.6,1,2.7c0,0.5-0.1,0.9-0.2,1.4h-3.8
				c0.1-0.3,0.1-0.6,0.1-0.9c0-0.4-0.2-0.8-0.4-1.1c-0.3-0.3-0.7-0.5-1.4-0.5c-0.6,0-1.2,0.2-1.5,0.5c-0.6,0.5-0.8,1.2-0.8,2
				c0,0.8,0.4,1.4,1.5,1.9l1.9,0.9c2.2,1.1,3.1,2.6,3.1,4.5c0,2.2-1,4.1-2.3,5.1c-1.3,1-2.8,1.4-4.7,1.4c-2,0-3.4-0.5-4.4-1.5
				C365.6,346.4,365.3,345.3,365.3,344.2z"/>
			<path class="st2" d="M384.2,330.8c1.1-1.1,2.6-1.8,4.9-1.8c2.2,0,3.6,0.7,4.4,1.9c0.5,0.8,0.7,1.6,0.7,2.6c0,0.4,0,0.8-0.1,1.3
				h-3.9c0.1-0.5,0.1-0.8,0.1-1c0-0.5-0.1-0.8-0.4-1.2c-0.2-0.3-0.6-0.4-1.1-0.4c-0.6,0-1.2,0.3-1.7,0.8c-0.8,0.9-1.2,2.6-1.9,5.8
				c-0.5,2.2-0.9,4.1-0.9,5c0,0.6,0.2,1,0.5,1.3c0.3,0.2,0.6,0.3,1.1,0.3c0.5,0,1-0.1,1.5-0.5c0.6-0.5,0.8-1.1,1.1-2.1h4
				c-0.5,2-1.2,3.1-2,4c-1.1,1.1-2.6,1.8-5,1.8c-2.1,0-3.4-0.6-4.3-1.8c-0.5-0.8-0.8-1.7-0.8-2.9c0-1.1,0.3-2.7,0.8-5.1
				C382.1,334.1,382.8,332.2,384.2,330.8z"/>
			<path class="st2" d="M395.1,344.1c0-0.5,0-1.1,0.2-1.6l4.4-19.9h4l-4.3,19.6c-0.1,0.5-0.1,0.8-0.1,1.2c0,1,0.7,1.7,2.2,1.7
				l-0.7,3.2c-2.1,0-3.4-0.4-4.4-1.3C395.5,346.3,395.1,345.5,395.1,344.1z"/>
			<path class="st2" d="M415,348.3h-3.9l0.3-1.4c-0.5,0.5-1,0.9-1.6,1.2c-0.5,0.3-1.2,0.5-2.1,0.5c-2,0-2.8-0.8-3.3-1.5
				c-0.4-0.7-0.6-1.3-0.6-2.3c0-0.4,0.1-1,0.3-2l3-13.5h4l-3,13.5c-0.1,0.5-0.2,0.9-0.2,1.2c0,0.8,0.6,1.5,1.6,1.5
				c1,0,2.1-0.6,2.6-2.6l3-13.5h4L415,348.3z"/>
			<path class="st2" d="M419,344.2c0-0.4,0-0.8,0.2-1.4h4c-0.1,0.3-0.1,0.5-0.1,0.8c0,0.5,0.1,0.9,0.4,1.2c0.3,0.3,0.8,0.5,1.5,0.5
				c0.7,0,1.3-0.2,1.7-0.7c0.6-0.6,0.8-1.3,0.8-2.1c0-0.9-0.4-1.6-1.7-2.3l-1.9-0.9c-2-1-2.8-2.4-2.8-4c0-1.8,0.7-3.7,2.3-5
				c1.1-0.9,2.6-1.4,4.5-1.4c2,0,3.5,0.6,4.3,1.6c0.6,0.7,1,1.6,1,2.7c0,0.5-0.1,0.9-0.2,1.4h-3.8c0.1-0.3,0.1-0.6,0.1-0.9
				c0-0.4-0.2-0.8-0.4-1.1c-0.3-0.3-0.7-0.5-1.4-0.5c-0.6,0-1.2,0.2-1.5,0.5c-0.6,0.5-0.8,1.2-0.8,2c0,0.8,0.4,1.4,1.5,1.9l1.9,0.9
				c2.2,1.1,3.1,2.6,3.1,4.5c0,2.2-1,4.1-2.3,5.1c-1.3,1-2.8,1.4-4.7,1.4c-2,0-3.4-0.5-4.4-1.5C419.4,346.4,419,345.3,419,344.2z"/>
			<path class="st2" d="M437.4,329.9h4l-4.1,18.5h-4L437.4,329.9z M438.9,323h4.2l-0.9,3.9H438L438.9,323z"/>
			<path class="st2" d="M459.2,347.2c-1,0.9-2.1,1.4-3.9,1.4c-1,0-1.7-0.3-2-0.5c-0.4-0.3-0.7-0.6-1-1l-1.8,7.9h-4l5.7-25.7h3.9
				l-0.3,1.4c0.3-0.4,1-0.9,1.4-1.2c0.6-0.3,1.4-0.5,2.1-0.5c1.4,0,2.6,0.4,3.2,1.5c0.5,0.7,0.6,1.5,0.6,2.5c0,1.4-0.4,3.3-0.9,5.8
				C461,344.5,460.4,346.1,459.2,347.2z M459.1,333.9c0-0.6-0.1-1-0.4-1.2c-0.4-0.4-0.6-0.5-1.1-0.5c-0.6,0-1.1,0.2-1.5,0.5
				c-0.5,0.5-0.9,1-1.1,2l-1.8,8.2c-0.1,0.4-0.1,0.7-0.1,1c0,0.5,0.1,0.8,0.4,1.2c0.2,0.3,0.6,0.4,1.1,0.4c0.6,0,1-0.2,1.5-0.6
				c0.8-0.7,1.4-3,2.1-6C458.9,336.2,459.1,334.8,459.1,333.9z"/>
			<path class="st2" d="M467.7,329.3h3.9l-0.4,2c0.5-0.7,1.1-1.2,2-1.6c1-0.5,2.1-0.7,3.4-0.7l-0.8,3.5h-1.4c-1.9,0-3.6,1.3-4.1,3.5
				l-2.7,12.3h-4L467.7,329.3z"/>
			<path class="st2" d="M479.1,330.8c1.1-1.1,2.6-1.8,4.9-1.8c2.2,0,3.6,0.7,4.4,1.9c0.5,0.8,0.7,1.6,0.7,2.7c0,1.1-0.3,2.7-0.8,5.1
				c-1.1,5-1.8,6.7-3.2,8c-1.1,1.1-2.6,1.8-4.9,1.8c-2.2,0-3.6-0.7-4.4-1.9c-0.4-0.8-0.6-1.6-0.6-2.8c0-1.1,0.3-2.7,0.8-5.1
				C477.1,333.9,477.8,332.2,479.1,330.8z M485.1,333.9c0-0.5-0.1-0.9-0.4-1.2c-0.2-0.3-0.6-0.4-1.2-0.4c-0.6,0-1.2,0.3-1.7,0.8
				c-0.8,0.9-1.2,2.8-1.9,5.8c-0.5,2.1-0.8,4.1-0.8,4.9c0,0.5,0.1,0.9,0.4,1.2c0.2,0.3,0.6,0.4,1.2,0.4c0.6,0,1.2-0.3,1.7-0.8
				c0.8-0.9,1.2-2.8,1.9-5.8C484.8,336.7,485.1,334.7,485.1,333.9z"/>
			<path class="st2" d="M494,330.5c1-0.9,2.1-1.4,3.9-1.4c0.9,0,1.6,0.3,2,0.5c0.4,0.3,0.7,0.6,1,1l1.7-7.9h4l-5.7,25.7h-3.9
				l0.3-1.4c-0.3,0.4-1,0.9-1.4,1.2c-0.6,0.3-1.4,0.5-2.1,0.5c-1.4,0-2.5-0.4-3.2-1.5c-0.4-0.8-0.6-1.5-0.6-2.5
				c0-1.4,0.4-3.3,0.9-5.8C492.2,333.2,492.9,331.5,494,330.5z M494.1,343.7c0,0.6,0.1,1,0.4,1.2c0.3,0.3,0.6,0.5,1.2,0.5
				c0.5,0,1.2-0.2,1.5-0.5c0.4-0.4,0.8-1,1-2l1.8-8.2c0.1-0.4,0.1-0.7,0.1-1c0-0.5-0.2-0.9-0.4-1.2c-0.2-0.2-0.6-0.4-1.1-0.4
				c-0.6,0-1.1,0.2-1.6,0.6c-0.8,0.7-1.4,3-2.1,6C494.4,341.4,494.1,342.8,494.1,343.7z"/>
			<path class="st2" d="M509.6,330.8c1.1-1.1,2.6-1.8,4.9-1.8c2.2,0,3.6,0.7,4.4,1.9c0.5,0.8,0.7,1.6,0.7,2.7c0,1.1-0.3,2.7-0.8,5.1
				c-1.1,5-1.8,6.7-3.2,8c-1.1,1.1-2.6,1.8-4.9,1.8c-2.2,0-3.6-0.7-4.4-1.9c-0.4-0.8-0.6-1.6-0.6-2.8c0-1.1,0.3-2.7,0.8-5.1
				C507.5,333.9,508.2,332.2,509.6,330.8z M515.5,333.9c0-0.5-0.1-0.9-0.4-1.2c-0.2-0.3-0.6-0.4-1.2-0.4c-0.6,0-1.2,0.3-1.7,0.8
				c-0.8,0.9-1.2,2.8-1.9,5.8c-0.5,2.1-0.8,4.1-0.8,4.9c0,0.5,0.1,0.9,0.4,1.2c0.2,0.3,0.6,0.4,1.2,0.4c0.6,0,1.2-0.3,1.7-0.8
				c0.8-0.9,1.2-2.8,1.9-5.8C515.2,336.7,515.5,334.7,515.5,333.9z"/>
			<path class="st2" d="M521.9,342.4l2.2-9.8h-2l0.6-2.7h2l1.2-5.4h4l-1.2,5.4h2.8l-0.6,2.7h-2.8l-2.1,9.6c-0.1,0.4-0.2,0.8-0.2,1.2
				c0,1,0.8,1.7,2.3,1.7l-0.7,3.2c-2.1,0-3.5-0.4-4.5-1.3c-0.8-0.7-1.2-1.6-1.2-2.9C521.7,343.6,521.7,343,521.9,342.4z"/>
			<path class="st2" d="M532.2,342.4l2.2-9.8h-2l0.6-2.7h2l1.2-5.4h4l-1.2,5.4h2.8l-0.6,2.7h-2.8l-2.1,9.6c-0.1,0.4-0.2,0.8-0.2,1.2
				c0,1,0.8,1.7,2.3,1.7l-0.7,3.2c-2.1,0-3.5-0.4-4.5-1.3c-0.8-0.7-1.2-1.6-1.2-2.9C532.1,343.6,532.1,343,532.2,342.4z"/>
			<path class="st2" d="M544.6,329.9h4l-4.1,18.5h-4L544.6,329.9z M546.1,323h4.2l-0.9,3.9h-4.2L546.1,323z"/>
			<path class="st2" d="M559.9,330.8c1.1-1.1,2.6-1.8,4.9-1.8c2.2,0,3.6,0.7,4.4,1.9c0.5,0.8,0.7,1.6,0.7,2.6c0,0.4,0,0.8-0.1,1.3
				h-3.9c0.1-0.5,0.1-0.8,0.1-1c0-0.5-0.1-0.8-0.4-1.2c-0.2-0.3-0.6-0.4-1.1-0.4c-0.6,0-1.2,0.3-1.7,0.8c-0.8,0.9-1.2,2.6-1.9,5.8
				c-0.5,2.2-0.9,4.1-0.9,5c0,0.6,0.2,1,0.5,1.3c0.3,0.2,0.6,0.3,1.1,0.3c0.5,0,1-0.1,1.5-0.5c0.6-0.5,0.8-1.1,1.1-2.1h4
				c-0.5,2-1.2,3.1-2,4c-1.1,1.1-2.6,1.8-5,1.8c-2.1,0-3.4-0.6-4.3-1.8c-0.5-0.8-0.8-1.7-0.8-2.9c0-1.1,0.3-2.7,0.8-5.1
				C557.8,334.1,558.5,332.2,559.9,330.8z"/>
			<path class="st2" d="M574.4,330.8c1.1-1.1,2.6-1.8,4.9-1.8c2.2,0,3.6,0.7,4.4,1.9c0.5,0.8,0.7,1.6,0.7,2.7c0,1.1-0.3,2.7-0.8,5.1
				c-1.1,5-1.8,6.7-3.2,8c-1.1,1.1-2.6,1.8-4.9,1.8c-2.2,0-3.6-0.7-4.4-1.9c-0.4-0.8-0.6-1.6-0.6-2.8c0-1.1,0.3-2.7,0.8-5.1
				C572.4,333.9,573.1,332.2,574.4,330.8z M580.4,333.9c0-0.5-0.1-0.9-0.4-1.2c-0.2-0.3-0.6-0.4-1.2-0.4c-0.6,0-1.2,0.3-1.7,0.8
				c-0.8,0.9-1.2,2.8-1.9,5.8c-0.5,2.1-0.8,4.1-0.8,4.9c0,0.5,0.1,0.9,0.4,1.2c0.2,0.3,0.6,0.4,1.2,0.4c0.6,0,1.2-0.3,1.7-0.8
				c0.8-0.9,1.2-2.8,1.9-5.8C580.1,336.7,580.4,334.7,580.4,333.9z"/>
			<path class="st2" d="M589,329.3h3.9l-0.3,1.4c0.5-0.5,1-0.9,1.6-1.2c0.6-0.3,1.2-0.5,2.1-0.5c2.1,0,3,0.9,3.5,1.9
				c0.6-0.6,1.3-1.1,2.1-1.5c0.6-0.3,1.4-0.5,2.3-0.5c2,0,2.8,0.8,3.3,1.5c0.5,0.7,0.6,1.3,0.6,2.3c0,0.4-0.1,1-0.3,2l-3,13.5h-4
				l3-13.5c0.1-0.5,0.2-0.9,0.2-1.2c0-0.8-0.5-1.5-1.6-1.5c-1,0-2.1,0.6-2.6,2.6l-3,13.5h-4l3-13.5c0.1-0.5,0.2-0.9,0.2-1.2
				c0-0.8-0.5-1.5-1.6-1.5c-1.1,0-2.2,0.6-2.6,2.6l-3,13.5h-4L589,329.3z"/>
			<path class="st2" d="M609.3,343.9c0-1.1,0.3-2.7,0.8-5.1c1.1-4.7,1.8-6.6,3.1-8c1.1-1.2,2.6-1.8,5-1.8c2.1,0,3.4,0.7,4.1,1.6
				c0.5,0.7,0.8,1.7,0.8,3c0,1.7-0.4,3.7-1,6.3h-8.3c-0.4,1.8-0.6,3.2-0.6,3.9c0,0.5,0.1,0.9,0.4,1.2c0.2,0.3,0.6,0.4,1.1,0.4
				c0.5,0,1.1-0.1,1.5-0.5c0.5-0.4,0.8-1,1.1-2.1h4c-0.5,2-1.1,3.1-2.1,4.1c-1.1,1.1-2.6,1.7-4.9,1.7c-2.1,0-3.6-0.7-4.4-2
				C609.4,345.9,609.3,345,609.3,343.9z M618.7,337.1c0.4-1.5,0.5-2.6,0.5-3.2c0-1-0.4-1.7-1.6-1.7c-0.7,0-1.2,0.3-1.7,0.8
				c-0.6,0.7-1,1.9-1.6,4.2L618.7,337.1L618.7,337.1z"/>
			<path class="st2" d="M634.8,330.5c1-0.9,2.1-1.4,3.9-1.4c0.9,0,1.6,0.3,2,0.5c0.4,0.3,0.7,0.6,1,1l1.7-7.9h4l-5.7,25.7h-3.9
				l0.3-1.4c-0.3,0.4-1,0.9-1.4,1.2c-0.6,0.3-1.4,0.5-2.1,0.5c-1.4,0-2.5-0.4-3.2-1.5c-0.4-0.8-0.6-1.5-0.6-2.5
				c0-1.4,0.4-3.3,0.9-5.8C633,333.2,633.7,331.5,634.8,330.5z M634.9,343.7c0,0.6,0.1,1,0.4,1.2c0.3,0.3,0.6,0.5,1.2,0.5
				c0.5,0,1.2-0.2,1.5-0.5c0.4-0.4,0.8-1,1-2l1.8-8.2c0.1-0.4,0.1-0.7,0.1-1c0-0.5-0.2-0.9-0.4-1.2c-0.2-0.2-0.6-0.4-1.1-0.4
				c-0.6,0-1.1,0.2-1.6,0.6c-0.8,0.7-1.4,3-2.1,6C635.2,341.4,634.9,342.8,634.9,343.7z"/>
			<path class="st2" d="M645.7,344.5c0-0.6,0.1-1.1,0.2-1.9c0.4-1.7,1.4-3.3,2.7-4.2c1.2-0.9,2.5-1.2,4.7-1.2h2l0.5-2.5
				c0.1-0.5,0.2-0.8,0.2-1c0-0.9-0.5-1.5-1.6-1.5c-0.6,0-1,0.1-1.5,0.5c-0.5,0.5-0.8,1.1-1,1.9h-4c0.4-1.6,1-3.1,2.5-4.3
				c1-0.9,2.6-1.3,4.5-1.3c1.9,0,3.4,0.4,4.2,1.4c0.6,0.7,0.9,1.6,0.9,2.8c0,0.6-0.1,1.3-0.2,1.8l-2.9,13.2h-3.8l0.4-1.6
				c-0.4,0.5-0.9,0.9-1.5,1.3c-0.7,0.4-1.4,0.6-2.3,0.6c-1.6,0-2.6-0.5-3.4-1.6C645.9,346.4,645.7,345.5,645.7,344.5z M651.5,345.4
				c1.4,0,2.3-1.2,2.6-2.7l0.7-3h-1.3c-1.2,0-1.7,0.1-2.3,0.6c-0.8,0.7-1.4,2.1-1.4,3.3C649.9,344.7,650.4,345.4,651.5,345.4z"/>
			<path class="st2" d="M675.8,326.1h-4.5l0.8-3.4h13.3l-0.8,3.4h-4.5l-4.9,22.2h-4.2L675.8,326.1z"/>
			<path class="st2" d="M680.6,343.9c0-1.1,0.3-2.7,0.8-5.1c1.1-4.7,1.8-6.6,3.1-8c1.1-1.2,2.6-1.8,5-1.8c2.1,0,3.4,0.7,4.1,1.6
				c0.5,0.7,0.8,1.7,0.8,3c0,1.7-0.4,3.7-1,6.3h-8.3c-0.4,1.8-0.6,3.2-0.6,3.9c0,0.5,0.1,0.9,0.4,1.2c0.2,0.3,0.6,0.4,1.1,0.4
				c0.5,0,1.1-0.1,1.5-0.5c0.5-0.4,0.8-1,1.1-2.1h4c-0.5,2-1.1,3.1-2.1,4.1c-1.1,1.1-2.6,1.7-4.9,1.7c-2.1,0-3.6-0.7-4.4-2
				C680.8,345.9,680.6,345,680.6,343.9z M690.1,337.1c0.4-1.5,0.5-2.6,0.5-3.2c0-1-0.4-1.7-1.6-1.7c-0.7,0-1.2,0.3-1.7,0.8
				c-0.6,0.7-1,1.9-1.6,4.2L690.1,337.1L690.1,337.1z"/>
			<path class="st2" d="M699.1,329.3h3.9l-0.4,2c0.5-0.7,1.1-1.2,2-1.6c1-0.5,2.1-0.7,3.4-0.7l-0.8,3.5h-1.4c-1.9,0-3.6,1.3-4.1,3.5
				l-2.7,12.3h-4L699.1,329.3z"/>
			<path class="st2" d="M710.4,329.3h3.9l-0.3,1.4c0.5-0.5,1-0.9,1.6-1.2c0.6-0.3,1.2-0.5,2.1-0.5c2.1,0,3,0.9,3.5,1.9
				c0.6-0.6,1.3-1.1,2.1-1.5c0.6-0.3,1.4-0.5,2.3-0.5c2,0,2.8,0.8,3.3,1.5c0.5,0.7,0.6,1.3,0.6,2.3c0,0.4-0.1,1-0.3,2l-3,13.5h-4
				l3-13.5c0.1-0.5,0.2-0.9,0.2-1.2c0-0.8-0.5-1.5-1.6-1.5c-1,0-2.1,0.6-2.6,2.6l-3,13.5h-4l3-13.5c0.1-0.5,0.2-0.9,0.2-1.2
				c0-0.8-0.5-1.5-1.6-1.5c-1.1,0-2.2,0.6-2.6,2.6l-3,13.5h-4L710.4,329.3z"/>
			<path class="st2" d="M734.1,329.9h4l-4.1,18.5h-4L734.1,329.9z M735.5,323h4.2l-0.9,3.9h-4.2L735.5,323z"/>
			<path class="st2" d="M742.2,329.3h3.9l-0.3,1.4c0.5-0.5,1-0.9,1.6-1.2c0.5-0.3,1.2-0.5,2.1-0.5c2,0,2.8,0.8,3.3,1.5
				c0.4,0.7,0.6,1.3,0.6,2.3c0,0.4-0.1,1-0.3,2l-3,13.5h-4l3-13.5c0.1-0.5,0.2-0.9,0.2-1.2c0-0.8-0.6-1.5-1.6-1.5
				c-1,0-2.1,0.6-2.6,2.6l-3,13.5h-4L742.2,329.3z"/>
			<path class="st2" d="M757.9,329.9h4l-4.1,18.5h-4L757.9,329.9z M759.3,323h4.2l-0.9,3.9h-4.2L759.3,323z"/>
			<path class="st2" d="M769.2,343.9c0-1.1,0.3-2.7,0.8-5.1c1.1-4.7,1.8-6.6,3.1-8c1.1-1.2,2.6-1.8,5-1.8c2.1,0,3.4,0.7,4.1,1.6
				c0.5,0.7,0.8,1.7,0.8,3c0,1.7-0.4,3.7-1,6.3h-8.3c-0.4,1.8-0.6,3.2-0.6,3.9c0,0.5,0.1,0.9,0.4,1.2c0.2,0.3,0.6,0.4,1.1,0.4
				c0.5,0,1.1-0.1,1.5-0.5c0.5-0.4,0.8-1,1.1-2.1h4c-0.5,2-1.1,3.1-2.1,4.1c-1.1,1.1-2.6,1.7-4.9,1.7c-2.1,0-3.6-0.7-4.4-2
				C769.3,345.9,769.2,345,769.2,343.9z M778.6,337.1c0.4-1.5,0.5-2.6,0.5-3.2c0-1-0.4-1.7-1.6-1.7c-0.7,0-1.2,0.3-1.7,0.8
				c-0.6,0.7-1,1.9-1.6,4.2L778.6,337.1L778.6,337.1z"/>
			<path class="st2" d="M792.6,335.5c1.8-7.8,2.6-9.7,4.4-11.3c1.4-1.2,3-1.8,5.3-1.8c2.1,0,3.7,0.6,4.7,1.7
				c0.8,0.9,1.2,2.3,1.2,3.6c0,0.5,0,1-0.1,1.7h-4.2c0.1-0.5,0.1-1,0.1-1.4c0-1.2-0.4-2.1-2-2.1c-0.9,0-1.5,0.3-2,0.8
				c-1.1,1-1.6,2.6-3.1,8.9c-0.7,3.3-1.2,6-1.2,7.5c0,1.4,0.6,2.2,2,2.2c1,0,1.7-0.4,2.2-0.9c0.6-0.7,1-1.5,1.3-2.6h4.3
				c-0.6,2.6-1.5,4.2-3.1,5.5c-1.2,1-2.7,1.5-5.1,1.5c-2.5,0-4-0.8-4.9-2.1c-0.7-1-1-2-1-3.5C791.4,341.5,791.8,339,792.6,335.5z"/>
			<path class="st2" d="M811.8,330.8c1.1-1.1,2.6-1.8,4.9-1.8c2.2,0,3.6,0.7,4.4,1.9c0.5,0.8,0.7,1.6,0.7,2.7c0,1.1-0.3,2.7-0.8,5.1
				c-1.1,5-1.8,6.7-3.2,8c-1.1,1.1-2.6,1.8-4.9,1.8c-2.2,0-3.6-0.7-4.4-1.9c-0.4-0.8-0.6-1.6-0.6-2.8c0-1.1,0.3-2.7,0.8-5.1
				C809.7,333.9,810.4,332.2,811.8,330.8z M817.8,333.9c0-0.5-0.1-0.9-0.4-1.2c-0.2-0.3-0.6-0.4-1.2-0.4c-0.6,0-1.2,0.3-1.7,0.8
				c-0.8,0.9-1.2,2.8-1.9,5.8c-0.5,2.1-0.8,4.1-0.8,4.9c0,0.5,0.1,0.9,0.4,1.2c0.2,0.3,0.6,0.4,1.2,0.4c0.6,0,1.2-0.3,1.7-0.8
				c0.8-0.9,1.2-2.8,1.9-5.8C817.4,336.7,817.8,334.7,817.8,333.9z"/>
			<path class="st2" d="M826.3,329.3h3.9l-0.3,1.4c0.5-0.5,1-0.9,1.6-1.2c0.5-0.3,1.2-0.5,2.1-0.5c2,0,2.8,0.8,3.3,1.5
				c0.4,0.7,0.6,1.3,0.6,2.3c0,0.4-0.1,1-0.3,2l-3,13.5h-4l3-13.5c0.1-0.5,0.2-0.9,0.2-1.2c0-0.8-0.6-1.5-1.6-1.5
				c-1,0-2.1,0.6-2.6,2.6l-3,13.5h-4L826.3,329.3z"/>
			<path class="st2" d="M842.5,330.5c1-0.9,2.1-1.4,3.9-1.4c0.9,0,1.6,0.3,2,0.5c0.4,0.3,0.7,0.6,1,1l1.7-7.9h4l-5.7,25.7h-3.9
				l0.3-1.4c-0.3,0.4-1,0.9-1.4,1.2c-0.6,0.3-1.4,0.5-2.1,0.5c-1.4,0-2.5-0.4-3.2-1.5c-0.4-0.8-0.6-1.5-0.6-2.5
				c0-1.4,0.4-3.3,0.9-5.8C840.6,333.2,841.4,331.5,842.5,330.5z M842.6,343.7c0,0.6,0.1,1,0.4,1.2c0.3,0.3,0.6,0.5,1.2,0.5
				s1.2-0.2,1.5-0.5c0.4-0.4,0.8-1,1-2l1.8-8.2c0.1-0.4,0.1-0.7,0.1-1c0-0.5-0.2-0.9-0.4-1.2c-0.2-0.2-0.6-0.4-1.1-0.4
				c-0.6,0-1.1,0.2-1.6,0.6c-0.8,0.7-1.4,3-2.1,6C842.8,341.4,842.6,342.8,842.6,343.7z"/>
			<path class="st2" d="M857.5,329.9h4l-4.1,18.5h-4L857.5,329.9z M858.9,323h4.2l-0.9,3.9H858L858.9,323z"/>
			<path class="st2" d="M860.9,345.6l8.6-13.1H864l0.7-3.2h10.1l-0.6,2.7l-8.7,13.1h6l-0.7,3.2h-10.5L860.9,345.6z"/>
			<path class="st2" d="M877.8,329.9h4l-4.1,18.5h-4L877.8,329.9z M879.3,323h4.2l-0.9,3.9h-4.2L879.3,323z"/>
			<path class="st2" d="M886.3,330.8c1.1-1.1,2.6-1.8,4.9-1.8c2.2,0,3.6,0.7,4.4,1.9c0.5,0.8,0.7,1.6,0.7,2.7c0,1.1-0.3,2.7-0.8,5.1
				c-1.1,5-1.8,6.7-3.2,8c-1.1,1.1-2.6,1.8-4.9,1.8c-2.2,0-3.6-0.7-4.4-1.9c-0.4-0.8-0.6-1.6-0.6-2.8c0-1.1,0.3-2.7,0.8-5.1
				C884.3,333.9,885,332.2,886.3,330.8z M892.3,333.9c0-0.5-0.1-0.9-0.4-1.2c-0.2-0.3-0.6-0.4-1.2-0.4c-0.6,0-1.2,0.3-1.7,0.8
				c-0.8,0.9-1.2,2.8-1.9,5.8c-0.5,2.1-0.8,4.1-0.8,4.9c0,0.5,0.1,0.9,0.4,1.2c0.2,0.3,0.6,0.4,1.2,0.4c0.6,0,1.2-0.3,1.7-0.8
				c0.8-0.9,1.2-2.8,1.9-5.8C891.9,336.7,892.3,334.7,892.3,333.9z"/>
			<path class="st2" d="M900.9,329.3h3.9l-0.3,1.4c0.5-0.5,1-0.9,1.6-1.2c0.5-0.3,1.2-0.5,2.1-0.5c2,0,2.8,0.8,3.3,1.5
				c0.4,0.7,0.6,1.3,0.6,2.3c0,0.4-0.1,1-0.3,2l-3,13.5h-4l3-13.5c0.1-0.5,0.2-0.9,0.2-1.2c0-0.8-0.6-1.5-1.6-1.5
				c-1,0-2.1,0.6-2.6,2.6l-3,13.5h-4L900.9,329.3z"/>
			<path class="st2" d="M916.6,329.9h4l-4.1,18.5h-4L916.6,329.9z M918,323h4.2l-0.9,3.9h-4.2L918,323z"/>
			<path class="st2" d="M921.5,343.9h4.6l-1,4.4h-4.6L921.5,343.9z"/>
		</g>
	</g>
</g>
</svg>
